<svg width="40" height="40" viewBox="0 0 40 40" fill="none" xmlns="http://www.w3.org/2000/svg">
<g clip-path="url(#clip0_1640_348)">
<path d="M19.9551 40C14.0009 40 8.0467 40 2.10148 40C0.727436 40 0 39.2729 0 37.8995C0 31.4542 0 25.0179 0 18.5727C0 17.2083 0.736417 16.4722 2.10148 16.4722C14.0368 16.4722 25.9632 16.4722 37.8985 16.4722C39.2636 16.4722 40 17.2083 40 18.5727C40 25.0179 40 31.4542 40 37.8995C40 39.2639 39.2726 40 37.8985 40C31.9174 40 25.9362 40 19.9551 40ZM19.991 19.1652C15.815 19.1652 11.648 19.1652 7.47193 19.1652C6.88819 19.1652 6.7445 19.2908 6.71756 19.8564C6.60979 21.6786 5.18186 23.088 3.34082 23.1957C2.84688 23.2226 2.69421 23.3752 2.68523 23.8689C2.68523 26.7864 2.68523 29.6948 2.68523 32.6122C2.68523 33.1059 2.8379 33.2585 3.32286 33.2855C5.19084 33.3932 6.60081 34.8025 6.70858 36.6607C6.73552 37.1813 6.88819 37.316 7.40907 37.316C15.797 37.316 24.185 37.316 32.573 37.316C33.0938 37.316 33.2375 37.1723 33.2645 36.6517C33.3722 34.8205 34.7912 33.3932 36.6233 33.2944C37.1621 33.2675 37.2968 33.1239 37.2968 32.5673C37.2968 29.6948 37.2968 26.8223 37.2968 23.9587C37.2968 23.3842 37.1621 23.2406 36.5873 23.2136C34.8361 23.1239 33.3902 21.7056 33.2645 19.9551C33.2196 19.2819 33.1118 19.1921 32.4472 19.1921C28.2892 19.1921 24.1311 19.1921 19.9731 19.1921L19.991 19.1652Z" fill="#CF6C0D"/>
<path d="M2.67616 15.4668C3.01743 14.8743 3.31379 14.3537 3.61016 13.833C5.2626 10.9425 6.92403 8.05206 8.57648 5.17055C9.22309 4.04847 10.2379 3.7702 11.3515 4.40754C17.6649 8.02513 23.9694 11.6427 30.2738 15.2693C30.3457 15.3052 30.4085 15.3501 30.5612 15.4488C30.3457 15.4578 30.2199 15.4758 30.0942 15.4758C28.819 15.4758 27.5437 15.4937 26.2684 15.4668C25.99 15.4668 25.6847 15.377 25.4422 15.2424C21.7062 13.1149 17.9882 10.9785 14.2613 8.84201C13.6955 8.51885 13.5608 8.55476 13.1926 9.0754C12.3124 10.3411 10.7229 10.772 9.32188 10.1257C8.72915 9.84739 8.6124 9.89228 8.2891 10.4578C7.39103 12.0197 6.49296 13.5817 5.60387 15.1526C5.46916 15.386 5.33445 15.4847 5.04707 15.4758C4.27473 15.4488 3.51137 15.4758 2.6582 15.4758L2.67616 15.4668Z" fill="#CF6C0D"/>
<path d="M35.4559 15.4668C34.6387 15.4668 33.8574 15.4848 33.076 15.4488C32.9503 15.4488 32.7797 15.2693 32.7168 15.1347C31.6032 12.7379 30.5076 10.3321 29.4119 7.93538C29.1784 7.42371 28.9539 6.92102 28.7114 6.40935C28.5049 5.97847 28.3163 5.90666 27.8762 6.05926C26.2417 6.64274 24.8138 6.11312 23.9517 4.59606C23.7182 4.19211 23.5296 4.12928 23.0895 4.32676C21.3832 5.10773 19.6858 5.87973 17.9885 6.67865C17.728 6.79535 17.5394 6.79535 17.297 6.64274C16.6055 6.22084 15.896 5.83484 15.1416 5.39499C15.2584 5.3142 15.3392 5.25136 15.429 5.21545C19.0751 3.54579 22.7213 1.86716 26.3675 0.1975C27.4272 -0.28724 28.442 0.0808036 28.927 1.13107C31.0823 5.80791 33.2197 10.4848 35.3661 15.1526C35.402 15.2424 35.429 15.3321 35.4739 15.4578L35.4559 15.4668Z" fill="#CF6C0D"/>
<path d="M23.628 15.4488H6.60059C7.43579 13.9856 8.25303 12.5673 9.07028 11.131C10.9921 11.7774 12.6087 11.3375 13.9468 9.81146C17.1798 11.6696 20.4219 13.5188 23.6549 15.377C23.6549 15.4039 23.637 15.4309 23.628 15.4578V15.4488Z" fill="#CF6C0D"/>
<path d="M18.6982 7.45062C20.2519 6.74146 21.7247 6.06821 23.2065 5.38599C24.401 7.01974 25.9636 7.6122 27.9394 7.13643C29.0889 9.64092 30.2295 12.1275 31.37 14.623C31.3431 14.6409 31.3251 14.6589 31.2982 14.6768C27.1221 12.2801 22.9461 9.88329 18.6982 7.45062Z" fill="#CF6C0D"/>
<path d="M7.73272 20.1705C7.91233 20.1705 8.08296 20.1705 8.24462 20.1705C16.0848 20.1705 23.9249 20.1705 31.765 20.1705C32.1422 20.1705 32.2949 20.2334 32.3937 20.6553C32.8517 22.5404 34.0641 23.7073 35.968 24.1292C36.0758 24.1562 36.1835 24.1831 36.2913 24.21V32.28C36.1207 32.316 35.9411 32.3519 35.7704 32.3967C33.9114 32.9084 32.7619 34.0933 32.3578 35.9874C32.3039 36.2208 32.241 36.3106 31.9896 36.3106C23.9518 36.3106 15.9141 36.3106 7.87641 36.3106C7.83151 36.3106 7.79558 36.3016 7.71476 36.2926C7.68781 36.14 7.66087 35.9784 7.61597 35.8169C7.11305 33.9407 5.91862 32.7738 4.01471 32.3608C3.81714 32.316 3.69141 32.289 3.69141 32.0377C3.70039 29.4614 3.69141 26.8851 3.70039 24.3088C3.70039 24.2818 3.71835 24.2549 3.72733 24.21C5.96352 23.7881 7.30164 22.4506 7.72374 20.1795L7.73272 20.1705ZM19.9734 34.1203C23.2154 34.1292 25.8737 31.5081 25.8917 28.2854C25.9096 25.0449 23.2873 22.3788 20.0632 22.3608C16.8032 22.3429 14.136 24.973 14.127 28.2226C14.127 31.4632 16.7404 34.1113 19.9734 34.1292V34.1203Z" fill="#CF6C0D"/>
<path d="M19.9824 33.1149C17.3151 33.1149 15.1328 30.9156 15.1328 28.2406C15.1328 25.5476 17.3421 23.3573 20.0273 23.3662C22.7215 23.3752 24.8948 25.5835 24.8769 28.2854C24.8589 30.9515 22.6586 33.1239 19.9824 33.1149Z" fill="#CF6C0D"/>
</g>
<defs>
<clipPath id="clip0_1640_348">
<rect width="40" height="40" fill="white"/>
</clipPath>
</defs>
</svg>
