<svg width="43" height="53" viewBox="0 0 43 53" fill="none" xmlns="http://www.w3.org/2000/svg">
<g clip-path="url(#clip0_1638_283)">
<path d="M18.9653 12.4263C15.7724 10.3457 12.6497 8.311 9.44302 6.22215C12.6373 4.14162 15.7655 2.10412 18.9955 0C18.9955 1.05067 18.9955 1.98059 18.9955 2.90913C18.9955 3.77104 19.1028 3.88069 19.9736 3.93204C30.097 4.53025 39.2905 11.9877 42.0404 21.8323C44.8563 31.9144 41.3718 42.3767 33.0877 48.4711C28.3939 51.9244 23.0936 53.4053 17.3035 52.9056C10.2093 52.2922 4.52096 49.0777 0.286712 43.2927C0.169782 43.1331 0.0707355 42.961 0.00195312 42.7736C0.645756 43.5023 1.25517 44.2657 1.94024 44.9541C5.68338 48.721 10.1941 50.9542 15.445 51.5552C22.9216 52.4101 29.3445 50.1422 34.3588 44.4544C41.6194 36.2198 41.8739 24.271 34.7398 16.0918C31.3117 12.1612 26.9963 9.79333 21.8239 9.08131C21.1443 8.98832 20.4537 8.9675 19.7673 8.94252C19.1757 8.92031 19.0065 9.10075 18.9996 9.71283C18.99 10.4235 18.9997 11.1327 18.9955 11.8433C18.9955 12.0099 18.979 12.1764 18.9666 12.4276L18.9653 12.4263Z" fill="#CF6C0D"/>
<path d="M18.6274 47.8938V47.3053C18.6274 42.5446 18.6315 37.7854 18.6191 33.0247C18.6191 32.6403 18.7086 32.414 19.0635 32.2114C23.1271 29.8949 27.1784 27.5562 31.2338 25.2231C31.3783 25.1398 31.5282 25.0662 31.7442 24.951V25.5187C31.7442 30.2794 31.7428 35.0386 31.7483 39.7993C31.7483 40.1102 31.7112 40.3308 31.3975 40.5127C27.2417 42.9096 23.0941 45.3247 18.9452 47.7341C18.8723 47.7758 18.7952 47.8105 18.6274 47.8951V47.8938Z" fill="#CF6C0D"/>
<path d="M13.3007 30.1225C14.7053 30.9178 16.008 31.6493 17.2984 32.4002C17.4002 32.4585 17.4758 32.6514 17.4772 32.7818C17.4855 37.8381 17.4841 42.8958 17.4841 48.0159C17.3259 47.9437 17.2035 47.9021 17.0934 47.8383C12.8825 45.3913 8.67306 42.9416 4.45945 40.4988C4.21046 40.3545 4.09766 40.2018 4.09766 39.8951C4.10866 35.0456 4.10453 30.1947 4.10591 25.3452C4.10591 25.23 4.11692 25.1148 4.12654 24.9205C5.08124 25.4618 5.93552 26.0586 6.87509 26.45C8.02513 26.9289 8.46259 27.6465 8.30301 28.8984C8.18195 29.8533 8.28926 30.8359 8.27412 31.8047C8.26862 32.1934 8.39931 32.4487 8.74872 32.6403C9.9249 33.2871 11.0859 33.9616 12.2552 34.6181C12.9252 34.9942 13.2952 34.7722 13.2994 33.9852C13.3049 32.7416 13.3007 31.4966 13.3007 30.1239V30.1225Z" fill="#CF6C0D"/>
<path d="M22.0899 18.5999C20.4818 19.5284 18.9658 20.4042 17.4485 21.2786C14.7054 22.8595 11.9582 24.4362 9.22209 26.0281C8.93182 26.1961 8.7186 26.2086 8.42559 26.0365C7.35808 25.4077 6.2727 24.8095 5.19556 24.1974C5.05112 24.1155 4.91631 24.0198 4.70996 23.8865C5.29874 23.5423 5.82836 23.2328 6.35799 22.9247C10.0612 20.7692 13.7686 18.6193 17.4636 16.4485C17.8268 16.2348 18.084 16.257 18.4307 16.4666C19.6069 17.1786 20.805 17.8531 22.0913 18.5985L22.0899 18.5999Z" fill="#CF6C0D"/>
<path d="M31.2122 23.9018C29.3579 24.9705 27.6025 25.9823 25.8458 26.9941C23.3862 28.4098 20.9224 29.8214 18.4696 31.2482C18.1697 31.4231 17.9413 31.4383 17.6346 31.2565C16.435 30.55 15.2189 29.8741 13.9492 29.1524C15.0236 28.5306 16.0457 27.9379 17.0692 27.3481C20.2896 25.4938 23.5127 23.645 26.7249 21.7796C27.0536 21.5881 27.2889 21.5992 27.608 21.7935C28.7677 22.4958 29.9466 23.1662 31.2136 23.9032L31.2122 23.9018Z" fill="#CF6C0D"/>
<path d="M9.98673 26.915C10.9744 26.3431 11.8769 25.8185 12.7807 25.2966C16.1304 23.3646 19.4828 21.4382 22.8256 19.4936C23.1393 19.3118 23.3622 19.316 23.662 19.5047C24.398 19.9669 25.1574 20.3916 25.9608 20.8622C25.7902 20.9732 25.6829 21.0523 25.5687 21.1175C21.4445 23.4965 17.3189 25.8699 13.2002 28.2599C12.8742 28.4487 12.6349 28.4487 12.3185 28.253C11.5866 27.8033 10.8314 27.3952 9.98535 26.915H9.98673Z" fill="#CF6C0D"/>
<path d="M12.1522 33.2343C11.2318 32.7124 10.412 32.2558 9.60308 31.7783C9.51091 31.7242 9.43525 31.5576 9.43388 31.4424C9.4215 30.3043 9.427 29.1648 9.427 27.9185C10.3336 28.4348 11.1768 28.9081 12.0105 29.3994C12.0889 29.4452 12.1453 29.5965 12.1453 29.6992C12.1549 30.8373 12.1508 31.9768 12.1508 33.2329L12.1522 33.2343Z" fill="#CF6C0D"/>
</g>
<defs>
<clipPath id="clip0_1638_283">
<rect width="43" height="53" fill="white"/>
</clipPath>
</defs>
</svg>
