<svg width="103" height="70" viewBox="0 0 103 70" fill="none" xmlns="http://www.w3.org/2000/svg">
<g clip-path="url(#clip0_294_608)">
<path d="M52.1061 0.472275C51.7732 1.02716 51.6068 1.73471 51.7178 2.13705C51.7733 2.3729 51.7179 2.41449 51.2739 2.41449C50.6633 2.41449 50.2198 2.70587 50.0949 3.1634C49.8869 4.0235 50.7608 4.73106 51.2739 4.10681C51.5791 3.71841 51.4681 3.27447 51.0381 3.1634C50.6636 3.06628 50.7329 2.83044 51.1352 2.83044C52.1617 2.83044 52.2726 4.89755 51.2878 5.7854C50.8578 6.17381 50.0116 6.06285 49.7341 5.57733C49.5678 5.27212 49.5678 5.11957 49.6926 4.75928C49.8452 4.35695 49.8452 4.32917 49.5955 4.39854C49.3597 4.45407 49.3182 4.39854 49.3182 3.96843C49.3135 3.63023 49.1963 3.30322 48.9853 3.03897L48.6663 2.63664L48.4166 3.0944C48.1946 3.53832 48.1946 3.85737 48.4166 4.38483C48.4857 4.56514 48.4443 4.59291 48.1946 4.53738L47.8756 4.45419L48.1808 4.84258C48.3794 5.10112 48.4868 5.41829 48.486 5.74439C48.486 6.85428 46.8631 7.61725 46.3221 6.77098C45.8645 6.07736 46.1278 5.18939 46.7937 5.18939C46.974 5.18939 46.9602 5.23098 46.7799 5.43906C46.4747 5.78586 46.4886 6.06331 46.8215 6.36852C47.0573 6.5766 47.1545 6.59055 47.4456 6.46565C48.2778 6.07725 47.8894 4.88406 46.8908 4.80087C46.5163 4.7731 46.2944 4.82864 46.0587 5.05055C45.7813 5.31416 45.7397 5.31417 45.6564 5.11969C45.6052 4.94356 45.5773 4.76151 45.5732 4.57816C45.5732 4.16199 44.9627 3.55157 44.4081 3.3989C44.2546 3.35338 44.0963 3.32547 43.9365 3.31573C43.9227 3.32955 44.214 3.9955 44.5884 4.78624C46.0169 7.8244 46.7106 9.2811 46.7383 9.30887C47.0644 9.22496 47.3842 9.11836 47.6954 8.98983C50.4279 8.00483 54.1452 8.00483 57.0441 8.976L58.0289 9.30899L59.3745 6.45159C60.1232 4.88395 60.7475 3.52438 60.7892 3.42726C60.8448 3.30236 60.7337 3.28899 60.387 3.38567C59.7904 3.55216 59.1658 4.24576 59.1658 4.74522C59.1658 5.28675 59.0549 5.35588 58.7082 5.03661C58.5676 4.90954 58.3969 4.82053 58.2121 4.77804C58.0274 4.73554 57.8349 4.74095 57.6528 4.79377C57.4707 4.8466 57.3052 4.94507 57.172 5.07983C57.0386 5.2146 56.9421 5.38121 56.8912 5.56384C56.6831 6.24363 57.4326 6.81245 57.9316 6.35458C58.2506 6.06319 58.2645 5.77192 57.9593 5.43894C57.7513 5.2031 57.7513 5.18927 57.9593 5.18927C58.2645 5.18927 58.7499 5.6748 58.7499 5.98001C58.7499 6.11826 58.625 6.43777 58.4726 6.67361C58.098 7.29786 57.4321 7.3118 56.7387 6.70138C56.3504 6.35458 56.2532 6.17415 56.2532 5.74415C56.2525 5.41806 56.3597 5.1009 56.5584 4.84236L56.8636 4.45395L56.5446 4.53714C56.295 4.59268 56.2532 4.56491 56.3226 4.3846C56.5446 3.85735 56.5446 3.53833 56.3226 3.09416L56.073 2.6364L55.7541 3.03873C55.5429 3.30299 55.4258 3.63001 55.4212 3.96819C55.4212 4.41213 55.3933 4.45373 55.1298 4.3983C54.8662 4.32917 54.8525 4.34277 54.9915 4.60638C55.3939 5.35531 54.9915 6.02148 54.1454 6.02148C53.3409 6.02148 52.7861 5.23075 52.7861 4.09309C52.7861 3.31618 53.1051 2.83066 53.604 2.83066C54.0201 2.83066 54.0756 3.06651 53.6872 3.16363C53.4237 3.23277 53.3405 3.34395 53.3405 3.64916C53.3405 4.14862 53.6457 4.41213 54.1033 4.30117C54.7691 4.13468 54.88 3.05257 54.2697 2.62258C54.0276 2.4884 53.7558 2.41688 53.4791 2.41449C52.9938 2.41449 52.9938 2.4145 53.0353 1.87298C53.0768 1.51223 52.9798 1.13766 52.7439 0.665955L52.3972 0L52.1061 0.472275ZM52.7857 6.63191C53.1741 7.11743 52.6333 7.92234 52.1338 7.60307C51.6345 7.29786 51.8148 6.43777 52.3697 6.43777C52.5266 6.45271 52.6735 6.52127 52.7857 6.63191ZM49.8869 7.21456C49.9473 7.27096 49.984 7.34842 49.9892 7.43099C49.9943 7.51357 49.9676 7.59499 49.9146 7.6585C49.5817 8.20001 48.7772 7.86658 48.9713 7.27009C49.0823 6.93666 49.6232 6.89553 49.8869 7.21456ZM55.768 7.27009C55.9621 7.86669 55.1575 8.19955 54.8247 7.6585C54.7718 7.59499 54.7451 7.51357 54.7502 7.43099C54.7553 7.34842 54.792 7.27096 54.8525 7.21456C55.1161 6.89553 55.6571 6.93666 55.768 7.27009ZM47.4318 7.76956C47.7092 7.88052 47.7232 8.36616 47.4456 8.46318C47.3753 8.49691 47.2959 8.50716 47.2192 8.49239C47.1426 8.47762 47.0727 8.43862 47.0199 8.38113C46.9671 8.32365 46.9341 8.25071 46.9259 8.17306C46.9175 8.09542 46.9345 8.01719 46.974 7.94987C47.1266 7.6585 47.1266 7.6585 47.4318 7.76956ZM57.7649 7.88052C57.8189 7.93501 57.8541 8.00524 57.8656 8.08108C57.877 8.15694 57.864 8.23445 57.8284 8.30244C57.7929 8.37041 57.7367 8.42534 57.6681 8.45927C57.5993 8.4932 57.5215 8.50437 57.4459 8.49116C57.113 8.44957 56.9742 7.97787 57.2517 7.81138C57.5018 7.64466 57.5849 7.6585 57.7654 7.88052H57.7649Z" fill="#CC6D00"/>
<path d="M49.5541 9.0178C48.1947 9.32301 46.4193 9.98896 45.476 10.5438C44.3386 11.2375 42.6604 12.5415 42.6604 12.7357C42.6604 13.1241 42.8685 13.0271 43.8814 12.2086C45.3394 11.0733 46.9948 10.2173 48.764 9.68375C49.985 9.32301 50.2614 9.2814 52.3703 9.29535C54.1318 9.29535 54.8669 9.35089 55.5605 9.54503C57.655 10.1139 59.7075 11.1682 61.1504 12.4306C61.7609 12.9579 61.9549 13.0688 62.0243 12.9023C62.1352 12.5971 62.052 12.514 60.8175 11.5844C59.4227 10.5434 57.8539 9.75887 56.1844 9.26748C55.1024 8.94844 54.6448 8.8929 52.717 8.85131C51.0936 8.8096 50.2475 8.86513 49.5541 9.0178Z" fill="#CC6D00"/>
<path d="M49.6651 9.99014C47.3705 10.5291 45.248 11.636 43.4926 13.2092L42.6049 14.0272L42.5911 14.8595C42.5911 15.5254 42.522 15.803 42.2721 16.1359C42.1056 16.3718 42.0085 16.5661 42.0641 16.5661C42.1195 16.5661 42.3553 16.2746 42.5772 15.9278C42.7992 15.5671 43.3951 14.8734 43.8949 14.3602C47.321 10.8922 52.4115 9.86535 56.9609 11.7102C58.8617 12.4732 61.1638 14.3462 62.1486 15.8998C62.3844 16.2745 62.6202 16.5658 62.6758 16.5658C62.7313 16.5658 62.6341 16.3716 62.4678 16.1358C62.218 15.8028 62.1488 15.525 62.1488 14.8733L62.1348 14.027L61.317 13.264C59.687 11.7826 57.7356 10.6998 55.6162 10.101C54.4226 9.76824 50.941 9.71269 49.6651 9.99014Z" fill="#CC6D00"/>
<path d="M37.0012 11.7511C36.7793 11.876 36.7376 11.9731 36.8347 12.0701C36.9456 12.1811 36.8624 12.2782 36.5712 12.4031C36.0164 12.6251 35.3783 13.3465 35.1703 14.0123C34.9345 14.7198 35.0731 16.2042 35.4615 17.0505C35.6574 17.5301 35.788 18.0339 35.8499 18.5483L35.9331 19.3664L36.4324 18.964L36.9318 18.5756L36.5851 17.8126C36.1828 16.9525 36.0164 15.2878 36.2522 14.4829C36.3631 14.0805 36.3771 14.1499 36.3213 14.9268C36.2327 15.9053 36.4151 16.8893 36.8485 17.7708C37.1535 18.3951 37.3061 18.4784 37.6945 18.1732C37.9165 18.0066 37.9026 17.9511 37.5974 17.3269C37.3742 16.9289 37.2595 16.4792 37.2645 16.0228L37.2784 15.3846L37.3893 16.0228C37.6113 17.2853 38.1938 17.9789 39.1924 18.1454C39.628 18.2407 40.0515 18.3849 40.4547 18.5756L41.1343 18.9223V18.5894C41.1343 18.2147 40.4547 17.5488 39.6367 17.1327C39.068 16.8413 38.7351 16.5084 38.5826 16.0783C38.527 15.898 38.6242 15.9674 38.8461 16.2447C39.0404 16.4945 39.5674 16.8829 40.0252 17.1327C41.0238 17.6598 41.2873 17.9507 41.3984 18.5894C41.4675 18.9916 41.5786 19.1165 42.078 19.3382L42.6605 19.6018V18.9794C42.6564 18.6331 42.5907 18.2901 42.4663 17.9667C42.189 17.4252 41.3566 16.7321 40.6354 16.4129C39.6506 15.9967 38.8322 15.1365 38.6379 14.3319C38.541 13.9435 38.5131 13.5966 38.5549 13.555C38.5964 13.4995 38.6379 13.5828 38.6379 13.7354C38.6519 14.2348 39.1651 15.1365 39.6506 15.5111L40.1499 15.8856L40.4274 15.6083C40.8018 15.2336 40.9127 15.2474 41.2452 15.6637C41.4948 15.9828 41.5504 15.9967 41.7447 15.7886C41.8819 15.6411 41.9608 15.4486 41.9667 15.2471C41.9667 14.9419 41.925 14.9141 41.5643 14.9836C40.7599 15.15 40.2466 14.4147 40.8015 13.8736C41.0788 13.5962 41.2731 13.5962 41.6615 13.8736C42.0359 14.1372 42.0497 14.1233 42.1746 13.6239C42.2856 13.2078 42.1055 13.069 41.273 12.8886C40.9766 12.8163 40.7043 12.668 40.4824 12.4585C40.3102 12.2679 40.0725 12.149 39.8166 12.1255C39.5547 12.1038 39.3044 12.0076 39.0953 11.8481C38.6795 11.529 37.5143 11.4736 37.0012 11.7511ZM40.1637 12.9581C39.9001 13.1384 39.7476 13.1384 39.7476 12.9581C39.7476 12.8749 39.8858 12.8198 40.0666 12.8198C40.3163 12.8192 40.3301 12.847 40.1637 12.9581Z" fill="#CC6D00"/>
<path d="M48.5137 13.4425C48.2917 13.928 47.2926 14.9825 46.7106 15.3436C46.2845 15.5838 45.839 15.7881 45.3791 15.9542L44.5329 16.2595L44.4912 17.6881C44.4497 19.3251 44.6021 20.8096 44.8102 20.7542C44.8934 20.7402 44.9351 19.9494 44.8934 18.6456L44.8519 16.5785L45.2401 16.4814C46.4886 16.1761 48.1807 14.9693 48.7076 13.9981L48.9711 13.5126H55.7677L56.0451 14.012C56.5444 14.9555 57.9458 15.9682 59.3602 16.4259L59.9016 16.5925L59.8461 18.6319C59.8045 19.8942 59.8307 20.005 59.9141 20.0467C59.9421 19.9643 60.1157 19.7743 60.2482 17.6884L60.2065 16.2596L59.3605 15.9545C58.9004 15.7884 58.4549 15.5841 58.0288 15.3438C57.4463 14.983 56.4476 13.9287 56.2257 13.4427L56.0731 13.0957H48.6661L48.5137 13.4425Z" fill="#CC6D00"/>
<path d="M55.2823 28.3282H49.4707L48.8048 27.6209C47.8698 26.63 47.3072 25.7774 46.6548 24.3602C46.4527 23.9346 46.3243 23.6582 46.2558 23.4713C45.8569 22.5682 45.5552 20.9009 45.478 20.448H45.4755L45.4707 20.4057C45.4626 20.3579 45.4587 20.3319 45.4587 20.3319L45.4622 20.3302L45.379 19.6018C45.3388 19.1485 45.2957 18.3351 45.2957 17.8119V16.8687L46.1001 16.5774C47.1549 16.1699 48.0767 15.4784 48.7632 14.5796L49.2484 13.9277H55.532L55.837 14.4001C56.3658 15.2629 57.5534 16.1602 58.7914 16.6337L59.4435 16.8831V17.9378C59.4435 18.5338 59.4005 19.3372 59.3603 19.7135L59.2912 20.2393C59.2843 20.3061 59.2753 20.3748 59.2642 20.4452C59.1236 21.33 58.8724 22.6385 58.477 23.546C58.4395 23.6436 58.3896 23.7638 58.3274 23.9141L58.32 23.9308C58.0415 24.5812 57.7092 25.2071 57.3266 25.8022C56.9578 26.3886 56.5384 26.9414 56.0729 27.4546L55.2823 28.3282ZM51.1172 17.4243C51.2625 17.4233 51.4068 17.4452 51.5452 17.4892C51.5925 17.5058 51.635 17.5332 51.6698 17.5693C51.7044 17.6053 51.7304 17.6489 51.7453 17.6966C51.786 17.8507 51.8033 18.0099 51.7967 18.169V22.9115C51.8103 23.2972 51.7632 23.6827 51.657 24.0537C51.593 24.2832 51.4536 24.4845 51.2613 24.6251C51.0766 24.7391 50.8672 24.8074 50.6508 24.8242V25.0059H50.6519C51.417 25.0059 52.0275 24.8691 52.4666 24.5993C52.9058 24.3294 53.1935 23.9913 53.3231 23.5954C53.3894 23.3696 53.4315 23.1375 53.4488 22.903C53.4704 22.644 53.4814 22.3747 53.4814 22.1023V18.1682C53.4754 18.0094 53.4909 17.8507 53.5274 17.696C53.5411 17.6481 53.566 17.6044 53.6001 17.5683C53.6341 17.5322 53.6764 17.5049 53.7233 17.4885C53.8649 17.4442 54.0127 17.4223 54.161 17.4238V17.2509C53.9754 17.2566 53.7452 17.2625 53.4583 17.2681C53.1713 17.2738 52.8767 17.277 52.5877 17.277C52.3045 17.277 52.0225 17.2739 51.7499 17.2681C51.4619 17.2617 51.2607 17.2566 51.1163 17.2509L51.1172 17.4243Z" fill="#CC6D00"/>
<path d="M31.758 16.7037C31.4924 16.8898 31.2816 17.1437 31.1475 17.4389C30.8561 18.2158 30.7867 18.299 30.3295 18.2852C29.8162 18.2575 29.7608 18.5073 30.177 18.9234C30.5099 19.2564 30.8429 19.2702 31.245 18.9926C31.4946 18.8122 31.5501 18.8122 31.7027 18.9926C32.1188 19.492 32.951 19.0758 32.951 18.396C32.951 18.1323 32.9095 18.077 32.8261 18.2017C32.7707 18.3127 32.5626 18.3681 32.3823 18.34C31.869 18.2708 31.8409 17.522 32.3408 17.1331C32.7567 16.8001 33.0619 16.7724 33.5618 17.0082C33.8253 17.1191 33.8808 17.2163 33.7838 17.3272C33.6729 17.4521 33.7421 17.5214 34.0334 17.5769C34.7409 17.7151 34.9766 18.8533 34.491 19.7545C34.3528 20.0181 33.8391 20.5314 33.3537 20.8782C32.3135 21.6272 31.8834 22.1822 31.7586 23.0285C31.5505 24.4436 32.1609 25.4424 33.2562 25.4424C33.9914 25.4286 34.1995 25.276 34.6433 24.4019L35.0039 23.7082L35.2397 24.2631C35.8639 25.761 35.5449 26.8298 34.4769 26.8298H33.9497L33.8526 28.2725C33.7971 29.0632 33.7971 29.8957 33.8526 30.1315C33.9497 30.6032 33.9635 30.5892 32.8678 30.7697L32.424 30.8389L32.8123 30.1174C33.2839 29.2296 33.4088 28.425 33.2284 27.5926C33.0619 26.8437 32.4517 25.8169 32.2159 25.9001C32.1188 25.9278 31.9384 26.2608 31.7998 26.6353C31.564 27.2736 31.5501 27.3707 31.7581 28.0782C31.8674 28.4427 31.9555 28.8133 32.0218 29.1881C32.0633 29.5348 32.0633 29.5348 32.2438 29.1189C32.3547 28.883 32.4379 28.342 32.4379 27.8975C32.4379 27.4259 32.4935 27.1763 32.5628 27.2734C32.7708 27.6064 32.6876 28.9104 32.4103 29.4375C32.1189 30.0063 31.2868 30.8663 31.5087 30.3671C31.5778 30.2144 31.6336 29.7705 31.6336 29.3683C31.6336 28.4663 31.2868 27.9671 30.4684 27.6896C29.9412 27.5092 29.8165 27.5232 29.2756 27.7173C28.4711 28.0226 28.1244 28.7023 28.3601 29.4794C28.6237 30.3672 29.6085 30.8804 30.0384 30.3672C30.0847 30.2962 30.1151 30.216 30.127 30.1321C30.1389 30.0482 30.1323 29.9626 30.1075 29.8816C29.9826 29.5071 29.4279 29.5209 29.1504 29.9093C28.9563 30.1868 28.9284 30.1868 28.8454 29.951C28.7763 29.7707 28.8592 29.6042 29.1227 29.3683C29.5665 28.9938 29.8579 28.966 30.2878 29.2713C30.579 29.4654 30.593 29.4654 30.593 29.1329C30.593 28.2867 29.4001 27.8983 28.776 28.5223L28.457 28.8413L28.679 28.4945C28.852 28.2525 29.1093 28.0842 29.4003 28.0229C30.3711 27.7731 31.0509 28.7164 30.7318 29.8957C30.6209 30.2841 30.274 30.7835 29.5667 31.5189C29.0119 32.1015 28.4294 32.8093 28.2765 33.0727C27.8306 33.8848 27.651 34.8165 27.7633 35.7362L27.8604 36.4716L28.0824 35.5698C28.3597 34.4461 28.7482 33.8219 29.6497 33.0033C30.9952 31.7963 32.8678 31.1859 34.5183 31.4078C35.6695 31.5742 35.6695 31.6852 34.5183 31.5882C33.5889 31.519 31.5222 31.8378 31.3696 32.0736C31.3419 32.1292 31.6331 32.1846 32.0215 32.1985C32.4653 32.2123 33.4363 32.4622 34.5459 32.8505C35.5445 33.1973 36.5849 33.4887 36.8761 33.4887C37.542 33.4887 38.2771 33.1558 38.6378 32.6841C38.9846 32.254 39.2343 31.3382 39.1371 30.9083L39.054 30.5892L38.5547 30.9222C37.8194 31.4217 36.4185 31.3661 36.4185 30.8531C36.4185 30.4369 36.0718 30.2705 35.406 30.3676C34.8646 30.4508 34.7541 30.4231 34.6292 30.1873C34.4489 29.8543 34.6154 29.244 35.1424 28.2863C35.4892 27.6343 35.5723 27.5786 36.3908 27.3568C38.3189 26.8434 38.9014 25.9141 38.2772 24.3462C38.1108 23.9301 38.0969 23.7355 38.2081 23.5138C38.3746 23.2086 39.2206 22.612 40.0945 22.1958C40.7603 21.8629 41.551 21.308 41.551 21.1552C41.551 21.0303 40.9269 20.7252 40.6493 20.7252C40.5523 20.7252 40.2748 20.8777 40.0528 21.072L39.6367 21.4188L39.5396 20.9055C39.4759 20.5817 39.3784 20.2655 39.2484 19.9621L39.0403 19.546L39.387 19.9344C39.5951 20.1424 39.7477 20.4199 39.7477 20.531C39.7477 20.7668 39.9003 20.7806 40.3582 20.5725C40.8437 20.3504 41.8285 20.739 42.6053 21.4465C43.0908 21.8904 42.9841 22.0834 43.3126 22.4394C43.3126 22.4394 43.7228 22.9785 43.8418 23.0107C44.1139 23.0345 44.3863 22.9689 44.6179 22.8239C44.8845 22.6477 45.4201 22.5182 45.3782 21.9634C45.3226 21.3391 45.0814 21.1527 44.2631 21.5689C43.9579 21.7215 43.8236 21.4468 43.7267 21.3912C43.6297 21.3357 43.6115 20.787 43.2847 20.517C42.6742 20.0454 41.9531 19.5875 41.6895 19.4764C41.426 19.3794 40.8717 19.1157 40.4685 18.9076C39.998 18.6746 39.5054 18.4886 38.9982 18.3527C38.3186 18.2003 38.1937 18.2145 37.7081 18.4637C37.278 18.6995 37.1948 18.7967 37.2504 19.0743C37.3043 19.4975 37.3275 19.9241 37.3195 20.3507C37.3195 21.1831 37.2779 21.3357 36.9866 21.572C36.7797 21.7237 36.5349 21.815 36.2791 21.8357C35.863 21.8357 35.0308 22.4323 35.0308 22.7375C35.0308 22.8346 34.8782 23.0149 34.6979 23.1258C34.5036 23.2642 34.2678 23.6391 34.1292 24.0553C33.9488 24.5826 33.824 24.7767 33.5465 24.8322C33.0051 24.9704 32.5755 24.694 32.3815 24.0693C32.1179 23.1675 32.3123 22.557 33.1027 21.8357C34.8921 20.2264 35.0035 20.1016 35.1694 19.4773C35.2645 19.106 35.2927 18.7208 35.2526 18.3397C35.1555 17.7154 34.5313 16.5084 34.4065 16.7027C34.351 16.7857 34.1845 16.7718 33.9211 16.6336C33.3392 16.329 32.285 16.3707 31.758 16.7037Z" fill="#CC6D00"/>
<path d="M69.3336 30.3698C68.6678 30.2726 68.3209 30.4389 68.3209 30.8552C68.3209 31.3686 66.9202 31.4242 66.1849 30.9243L65.6855 30.5914L65.6024 30.9104C65.5053 31.3405 65.755 32.2562 66.1017 32.6862C66.4624 33.1579 67.1975 33.4909 67.8633 33.4909C68.1547 33.4909 69.2088 33.1994 70.1936 32.8526C71.3032 32.4643 72.2741 32.2144 72.7181 32.2006C73.1063 32.1868 73.3977 32.1315 73.37 32.0757C73.2174 31.8399 71.1507 31.5209 70.2213 31.5903C69.07 31.6874 69.07 31.5764 70.2213 31.4099C71.8995 31.1879 73.7444 31.7844 75.0899 33.0054C76.0053 33.8376 76.4629 34.6145 76.6987 35.7383L76.879 36.6124L76.99 35.8216C77.1842 34.3238 76.671 33.0054 75.4642 31.8261C74.3822 30.7855 73.9801 30.092 73.9667 29.3013C73.9528 28.7046 74.0082 28.5523 74.3412 28.2746C74.785 27.8863 75.3954 27.8445 75.7697 28.1775C75.9079 28.3157 75.9638 28.3856 75.8945 28.3157C75.8113 28.2602 75.5199 28.2187 75.2287 28.2187C74.6045 28.2187 74.1467 28.607 74.1467 29.1343C74.1467 29.4673 74.1605 29.4673 74.4518 29.2725C74.8818 28.9673 75.1731 28.9952 75.6169 29.3697C75.8944 29.6193 75.9636 29.7721 75.8944 29.9662C75.7835 30.216 75.7695 30.216 75.6307 29.9107C75.4366 29.4945 74.7568 29.4806 74.6321 29.883C74.4101 30.5765 75.2563 30.7986 75.9359 30.216C76.8515 29.453 76.6017 28.1628 75.4783 27.7327C74.8678 27.4968 74.8124 27.4968 74.216 27.7327C73.8693 27.8575 73.4673 28.1351 73.3421 28.3292C73.0925 28.7177 73.0231 29.7304 73.2312 30.2995L73.3421 30.6462L72.9677 30.2995C72.6791 30.03 72.4499 29.7034 72.2945 29.3403C72.1393 28.9773 72.0615 28.5859 72.0661 28.191C72.0661 27.7887 72.1352 27.3586 72.2043 27.2477C72.3014 27.095 72.3425 27.3031 72.3425 27.9412C72.3425 28.4545 72.4396 28.9956 72.5505 29.1897L72.7448 29.5367L72.7586 29.1343C72.7954 28.743 72.8744 28.3569 72.9944 27.9827C73.2164 27.2752 73.2164 27.2198 72.9529 26.5817C72.8003 26.2208 72.5921 25.9297 72.4951 25.9297C72.3842 25.9297 72.1206 26.2627 71.8846 26.6649C71.5379 27.3031 71.4685 27.5527 71.4824 28.3713C71.4824 29.176 71.5515 29.4535 71.9123 30.0917L72.3423 30.8405L71.8847 30.7714C71.6235 30.7289 69.8746 30.453 69.3336 30.3698Z" fill="#CC6D00"/>
<path d="M43.2151 17.2166C42.8683 17.3415 42.577 17.4524 42.5493 17.4662C42.5829 17.6193 42.6441 17.765 42.7295 17.8963C42.857 18.1804 42.9277 18.4869 42.9375 18.7981C42.9375 19.3114 43.1041 19.4779 43.6034 19.4779C43.7699 19.4779 43.7837 19.4363 43.659 19.3114C43.6066 19.2589 43.5655 19.1961 43.5384 19.1271C43.5112 19.058 43.4986 18.9842 43.5013 18.9099C43.5038 18.8358 43.5217 18.763 43.5535 18.6961C43.5855 18.6291 43.6308 18.5693 43.6867 18.5206C43.867 18.3681 44.0751 16.9668 43.9087 16.9945C43.867 16.9945 43.5619 17.1055 43.2151 17.2166Z" fill="#CC6D00"/>
<path d="M39.5117 22.9474C38.4437 23.5581 38.4019 23.7243 39.1371 24.3762C40.1497 25.264 40.4274 26.1381 40.011 27.1369C39.8586 27.4976 39.8586 27.5808 40.011 27.6364C40.1082 27.6641 40.7738 28.0941 41.4953 28.5797C42.8545 29.5092 43.132 29.5924 44.0756 29.3011C44.8802 29.0653 44.7414 28.7045 43.8398 28.6905C43.4516 28.6766 43.077 28.6626 42.9798 28.6488C42.8966 28.6488 42.536 28.2605 42.1893 27.8165C41.4819 26.9009 41.3987 26.4292 41.787 25.6801C42.0922 25.0835 42.0922 24.0846 41.7592 23.5992C41.564 23.2803 40.5103 22.5312 40.2885 22.5312C40.2606 22.5312 39.9139 22.7255 39.5117 22.9474Z" fill="#CC6D00"/>
<path d="M45.4759 23.3345C45.351 23.4177 45.4344 23.7507 45.7811 24.5276C46.5578 26.3174 48.1253 28.4954 48.6379 28.4954C49.0125 28.4954 48.9709 28.3289 48.4159 27.8017C47.7225 27.1358 46.7238 25.5959 46.2105 24.4029C45.684 23.2102 45.684 23.2102 45.4759 23.3345Z" fill="#CC6D00"/>
<path d="M58.9444 23.46C58.4868 24.8196 57.1968 26.956 56.3367 27.7884C55.768 28.3432 55.7262 28.496 56.1147 28.496C56.517 28.496 57.9317 26.637 58.6668 25.1249C59.0136 24.4172 59.3187 23.7237 59.3326 23.5848C59.3882 23.2381 59.0552 23.1265 58.9444 23.46Z" fill="#CC6D00"/>
<path d="M42.5629 34.7516C42.536 34.7516 42.5217 34.7471 42.5217 34.7383C42.5217 34.5953 44.5569 33.8691 45.5455 33.6284C45.923 33.5478 46.2666 33.4351 46.2666 33.3929C46.2666 33.3714 46.2321 33.3606 46.1654 33.3606C45.8536 33.3606 44.8686 33.591 43.7147 33.9341C43.0518 34.13 42.4333 34.2838 42.3068 34.2838C42.2997 34.2844 42.2925 34.2833 42.2859 34.2804C42.2851 34.2791 42.2845 34.2776 42.2844 34.276C42.2843 34.2745 42.2845 34.2729 42.285 34.2715C42.3016 34.218 42.6384 34.0506 43.1043 33.8642C43.587 33.6655 43.7509 33.5527 43.743 33.5131C43.7406 33.5016 43.7229 33.495 43.6903 33.495C43.4321 33.5315 43.1793 33.5996 42.9378 33.698C42.6965 33.7954 42.4443 33.8631 42.1868 33.8992C42.1522 33.8992 42.1339 33.8927 42.1312 33.8796C42.1196 33.8277 42.3541 33.6871 42.7574 33.5037C43.0928 33.372 43.4175 33.2144 43.7285 33.0323C43.7321 33.028 43.7333 33.0242 43.732 33.0214C43.7299 33.0167 43.7205 33.0142 43.7038 33.0142C43.5324 33.0142 42.5762 33.2815 42.0083 33.5037C41.9104 33.5467 41.8075 33.577 41.702 33.5941C41.6883 33.5941 41.6808 33.591 41.679 33.5848C41.6676 33.5298 42.15 33.2507 42.729 33.0041C43.2495 32.773 43.575 32.6053 43.5782 32.5664C43.5784 32.5652 43.5782 32.564 43.5776 32.563C43.577 32.562 43.5763 32.5611 43.5753 32.5605C43.5693 32.557 43.5622 32.5556 43.5553 32.5565C43.1843 32.6233 42.8198 32.7219 42.4657 32.8516C41.9942 32.9987 41.672 33.0798 41.5588 33.0798C41.532 33.0798 41.5173 33.0751 41.5156 33.0659C41.5056 33.0138 41.8815 32.8301 42.5212 32.5741C43.077 32.3603 43.4921 32.1709 43.4921 32.1442C43.4921 32.1337 43.477 32.1285 43.4473 32.1285C43.2779 32.1285 42.6607 32.2984 41.9801 32.5325C41.7233 32.6283 41.4553 32.6912 41.1827 32.7199C41.1435 32.7199 41.1216 32.7134 41.1194 32.7017C41.1138 32.672 41.223 32.6119 41.4253 32.5325C42.1422 32.2456 43.1539 31.7581 43.1436 31.7045C43.143 31.7014 43.1389 31.6999 43.1322 31.6999C43.1279 31.6994 43.1238 31.6991 43.1195 31.6991C43.0061 31.6991 42.5105 31.8427 41.967 32.0332C41.6271 32.1632 41.276 32.2621 40.9181 32.3285C40.9114 32.3294 40.9046 32.3279 40.8989 32.3247C40.8983 32.3242 40.8979 32.3238 40.8977 32.3232C40.8974 32.3226 40.8974 32.322 40.8976 32.3214C40.909 32.255 42.5104 31.5102 43.049 31.3397C43.2014 31.2929 43.3156 31.235 43.3204 31.2023C43.3207 31.1992 43.3201 31.1963 43.3188 31.1937C43.3173 31.1909 43.3151 31.1887 43.3125 31.1873C43.3098 31.1832 43.301 31.1813 43.287 31.1813C43.1471 31.1813 42.5186 31.3607 41.8561 31.5894C41.1504 31.8166 40.7387 31.9318 40.6332 31.9318C40.6163 31.9318 40.6069 31.9289 40.6056 31.9229C40.5969 31.8807 40.985 31.6891 41.7591 31.3533C42.3669 31.0818 42.6839 30.9186 42.6759 30.8809C42.6748 30.8755 42.6665 30.8727 42.6514 30.8727C42.5536 30.8727 42.1683 30.986 41.537 31.2006C40.9604 31.388 40.5823 31.4955 40.5002 31.4955C40.4944 31.4963 40.4885 31.4949 40.4834 31.492C40.481 31.4898 40.4793 31.487 40.4784 31.4841C40.4775 31.481 40.4776 31.4778 40.4785 31.4747C40.5046 31.3768 41.2698 31.0491 42.4282 30.6397C43.4371 30.2751 44.464 29.9623 45.5047 29.7022L45.782 29.6331L45.5047 29.619C44.9473 29.6912 44.3958 29.8025 43.8539 29.9519C43.1386 30.1278 42.6098 30.2371 42.4731 30.2371C42.4528 30.2371 42.4421 30.2346 42.4414 30.2295C42.437 30.1974 42.8148 30.0729 43.4519 29.8967C45.8499 29.2711 48.3023 28.8762 50.7754 28.7171C51.0783 28.6961 51.4373 28.6855 51.8423 28.6855C54.0575 28.6855 57.275 28.998 59.1672 29.3971C59.7865 29.5239 60.5574 29.7062 61.2291 29.8855C61.898 30.0641 62.3048 30.1955 62.3172 30.2371C62.3176 30.2382 62.3176 30.2393 62.3173 30.2404C62.317 30.2415 62.3164 30.2424 62.3157 30.2432C62.3085 30.2467 62.3004 30.2481 62.2925 30.2471C61.8183 30.1792 61.3488 30.0807 60.8872 29.9522C60.1647 29.7649 59.4499 29.6179 59.2597 29.6179C59.2506 29.6179 59.2429 29.618 59.2367 29.6189C59.2182 29.6189 59.2085 29.6211 59.2078 29.6255C59.2038 29.6553 59.6082 29.7856 60.2629 29.9654C61.5062 30.2875 62.5183 30.6759 64.0635 31.325C64.3962 31.4706 64.5694 31.5608 64.5641 31.5862C64.5631 31.5911 64.5554 31.5934 64.5418 31.5934C64.4429 31.5934 64.0208 31.4703 63.3836 31.2556C62.6514 31.0073 62.2046 30.8759 62.0918 30.8759C62.0749 30.8759 62.0658 30.879 62.0647 30.8849C62.0564 30.9241 62.3735 31.0858 62.9815 31.3526C63.7555 31.6884 64.1434 31.88 64.1348 31.9221C64.1336 31.9281 64.1244 31.9311 64.1072 31.9311C64.0016 31.9311 63.5903 31.8159 62.8844 31.5887C62.1696 31.3417 61.5579 31.1696 61.4559 31.1696C61.4511 31.169 61.4462 31.1699 61.4418 31.1724C61.4415 31.1727 61.4411 31.1733 61.4409 31.1738C61.4408 31.1744 61.4408 31.175 61.4409 31.1756C61.4494 31.2174 62.0161 31.4773 62.7039 31.755C63.4201 32.0583 63.9455 32.3081 63.9533 32.3483C63.9534 32.3489 63.9534 32.3493 63.9533 32.3499C63.9531 32.3505 63.9528 32.3511 63.9524 32.3515C63.9476 32.3543 63.9418 32.3556 63.9363 32.3549C63.8522 32.3549 63.461 32.2464 62.7733 32.0322C62.2008 31.8373 61.738 31.7061 61.6221 31.7061C61.6067 31.7061 61.5972 31.7086 61.5943 31.713C61.5937 31.7136 61.5932 31.7145 61.5929 31.7154C61.5928 31.7161 61.5928 31.717 61.5931 31.7179C61.6016 31.7603 61.9859 31.9613 62.4684 32.1572C63.1404 32.4484 63.5052 32.6318 63.4971 32.6738C63.4958 32.6801 63.4855 32.6833 63.4682 32.6833C63.2317 32.6452 62.9991 32.5851 62.7738 32.5038C62.3023 32.3592 61.9715 32.2793 61.8422 32.2793C61.8064 32.2793 61.7871 32.2856 61.7847 32.2978C61.7741 32.3493 62.0536 32.5002 62.5516 32.7118C63.0594 32.9315 63.4194 33.1123 63.4271 33.1513C63.4274 33.152 63.4273 33.1529 63.4271 33.1538C63.4268 33.1545 63.4264 33.1553 63.4258 33.1559C63.4248 33.1582 63.4198 33.1594 63.4117 33.1594C63.0352 33.0822 62.6646 32.979 62.3025 32.8505C61.7564 32.6792 61.3322 32.5728 61.1956 32.5728C61.1673 32.5728 61.152 32.5775 61.1501 32.5866C61.1437 32.6196 61.3115 32.7084 61.6224 32.8367C62.7227 33.2893 63.14 33.4679 63.1561 33.5487C63.1569 33.553 63.1566 33.5572 63.1553 33.5612C63.1538 33.5653 63.1514 33.5688 63.1482 33.5718C63.1332 33.5807 63.1158 33.5844 63.0986 33.5822C62.9779 33.5726 62.859 33.5456 62.746 33.502C62.1779 33.28 61.214 33.0128 61.0371 33.0128C61.0203 33.0128 61.0106 33.0153 61.0084 33.0201C61.0071 33.0228 61.0084 33.0264 61.0121 33.0308C61.323 33.2129 61.6477 33.3706 61.9832 33.502C62.3954 33.6903 62.6259 33.8262 62.6153 33.8746C62.6127 33.8868 62.5945 33.893 62.5612 33.893C62.2827 33.854 62.0096 33.7834 61.7471 33.6824C61.5375 33.5998 61.3187 33.5431 61.0954 33.5135C61.0633 33.5135 61.0458 33.5197 61.0435 33.5317C61.0349 33.5754 61.2451 33.7076 61.7334 33.9043C62.1277 34.0572 62.4384 34.2138 62.4555 34.2685C62.4563 34.2703 62.4564 34.272 62.4563 34.2738C62.4561 34.2756 62.4557 34.2772 62.4546 34.2786C62.448 34.2816 62.4409 34.2826 62.4337 34.282C62.307 34.282 61.6885 34.1285 61.026 33.9323C60.2529 33.7073 59.3755 33.488 59.0285 33.4331C58.8494 33.41 58.7475 33.3996 58.6979 33.3996C58.674 33.3996 58.662 33.402 58.6614 33.4068C58.6585 33.4263 58.8332 33.486 59.3065 33.6268C60.6962 34.0396 62.1415 34.5918 62.1659 34.6876C62.1662 34.689 62.1663 34.6903 62.1659 34.6918C62.1656 34.6931 62.1649 34.6942 62.1638 34.6953C62.154 34.7008 62.1426 34.7031 62.1313 34.7016C61.9511 34.7016 61.1357 34.4804 60.6658 34.3486C57.8651 33.5246 55.4819 33.183 52.4408 33.1695C49.256 33.1695 46.4292 33.5823 43.7993 34.4317C43.1776 34.6401 42.6987 34.7516 42.5629 34.7516ZM58.0567 33.2401C57.9279 33.2401 57.8515 33.2523 57.8471 33.2737C57.8449 33.2841 57.8596 33.2962 57.8904 33.3094C57.9451 33.3248 58.0017 33.3318 58.0585 33.3305C58.1187 33.3314 58.1788 33.3242 58.2371 33.3094C58.2622 33.2969 58.2739 33.2854 58.2717 33.2755C58.266 33.253 58.1876 33.2401 58.056 33.2401H58.0567ZM46.683 33.2401C46.5542 33.2401 46.4776 33.2523 46.4732 33.2737C46.471 33.2841 46.4857 33.2962 46.5166 33.3094C46.5714 33.3248 46.628 33.3318 46.6846 33.3305C46.7448 33.3314 46.8048 33.3242 46.8632 33.3094C46.8883 33.2969 46.8999 33.2854 46.8977 33.2755C46.8921 33.253 46.8139 33.2401 46.6829 33.2401H46.683ZM52.7357 31.9267C52.6711 31.9305 52.608 31.9485 52.5514 31.9798C52.5078 31.9951 52.4692 32.0219 52.4394 32.0573C52.4098 32.0927 52.3901 32.1354 52.3827 32.181C52.3863 32.2297 52.4029 32.2767 52.4308 32.317C52.4587 32.3572 52.4967 32.3892 52.5411 32.4098C52.6174 32.4503 52.6836 32.5075 52.7345 32.5772C52.7856 32.6469 52.82 32.7272 52.8354 32.8122L52.8592 32.9545L52.9034 32.7853C52.9352 32.6455 52.9511 32.5025 52.9508 32.359C52.95 32.0686 52.8799 31.9273 52.7355 31.9273L52.7357 31.9267ZM51.8263 31.9921C51.7996 31.9911 51.773 31.9956 51.7481 32.0052C51.7231 32.0147 51.7002 32.0291 51.681 32.0476C51.6338 32.0916 51.6272 32.144 51.6473 32.315C51.6709 32.5373 51.6473 32.6202 51.5189 32.7585C51.4843 32.7968 51.4694 32.8205 51.4728 32.8289C51.4738 32.8312 51.4763 32.8324 51.4802 32.8324C51.5795 32.7927 51.6722 32.7381 51.7551 32.6706C52.0029 32.495 52.1347 32.328 52.1257 32.2005C52.1215 32.1653 52.1077 32.1317 52.0858 32.1037C52.0641 32.0755 52.0352 32.0539 52.0021 32.0409C51.9481 32.0109 51.8878 31.9943 51.8261 31.9926L51.8263 31.9921ZM51.0919 31.5197C51.0614 31.5194 51.0313 31.5256 51.0033 31.5378C50.9754 31.55 50.9503 31.5679 50.9298 31.5905C50.8842 31.6483 50.8466 31.712 50.8181 31.7799C50.7803 31.8601 50.7257 31.9312 50.6579 31.9886C50.5903 32.0458 50.511 32.0878 50.4257 32.1117C50.3695 32.1213 50.3385 32.1337 50.3335 32.149C50.3328 32.1528 50.3329 32.1566 50.3344 32.1603C50.3357 32.1638 50.3381 32.1669 50.3411 32.1691C50.4102 32.1905 50.4829 32.1979 50.5549 32.1907C50.6124 32.1907 50.6746 32.1891 50.7404 32.1863C51.1037 32.1707 51.3164 32.1064 51.3917 31.9896C51.4121 31.9531 51.4229 31.9119 51.4232 31.8699C51.4235 31.8281 51.4132 31.7867 51.3934 31.7498C51.3708 31.6864 51.3302 31.631 51.2766 31.5902C51.2231 31.5495 51.159 31.5252 51.0918 31.5202L51.0919 31.5197ZM53.3085 31.4153C53.2774 31.4173 53.247 31.4266 53.2202 31.4423C53.1932 31.458 53.1701 31.4797 53.1531 31.5058C53.1095 31.5604 53.0878 31.6291 53.0919 31.6986C53.1025 31.7971 53.116 31.8072 53.2985 31.8543C53.4129 31.874 53.5176 31.9312 53.5961 32.0169C53.6396 32.0654 53.6652 32.0871 53.6782 32.0871C53.6797 32.0871 53.6812 32.0868 53.6825 32.0862C53.6838 32.0856 53.685 32.0846 53.6859 32.0833C53.6983 32.0664 53.6817 31.9911 53.6267 31.8138C53.5495 31.5651 53.4306 31.4164 53.3083 31.4164L53.3085 31.4153ZM52.1847 30.0351C52.0848 30.0351 51.9855 30.0518 51.891 30.0842C51.7093 30.1479 51.5515 30.2658 51.4389 30.4219C51.3264 30.578 51.2646 30.765 51.2617 30.9575C51.2548 31.1295 51.299 31.2999 51.3886 31.4468C51.4784 31.5937 51.6097 31.7108 51.766 31.783C51.8993 31.8504 52.0467 31.8854 52.196 31.8857C52.3455 31.8853 52.493 31.8502 52.6267 31.7833C52.7603 31.7162 52.8767 31.6192 52.9666 31.4996C53.0495 31.3913 53.1054 31.2648 53.1296 31.1306C53.1538 30.9963 53.1456 30.8582 53.1059 30.7277C53.0467 30.5289 52.9252 30.3542 52.7594 30.2297C52.5935 30.1051 52.392 30.0371 52.1846 30.0359L52.1847 30.0351ZM50.2973 30.9831C50.294 30.9831 50.2923 30.9838 50.2918 30.9853C50.2892 30.9925 50.3246 31.0214 50.3954 31.0792C50.5542 31.2032 50.736 31.2942 50.9304 31.3467C50.9635 31.3451 50.9955 31.3342 51.0228 31.3155C51.0501 31.2965 51.0715 31.2703 51.0847 31.2397C51.1084 31.1941 51.1195 31.1429 51.1167 31.0915C51.1141 31.0402 51.0976 30.9904 51.0693 30.9476C51.0585 30.9272 51.0425 30.9101 51.023 30.8978C51.0034 30.8855 50.9811 30.8784 50.9581 30.8773C50.8965 30.8843 50.8378 30.9073 50.7881 30.944C50.7075 30.9936 50.6148 31.0196 50.5203 31.0195C50.4669 31.0192 50.4136 31.012 50.362 30.998H50.3614C50.3404 30.9914 50.3188 30.9867 50.2971 30.984L50.2973 30.9831ZM54.0691 31.0465C54.1678 31.0453 54.2656 31.067 54.3545 31.1099L54.4865 31.1775L54.3072 30.995C54.0509 30.7361 53.7555 30.5685 53.5547 30.5685C53.519 30.5659 53.4834 30.5726 53.4511 30.5879C53.4187 30.6031 53.3909 30.6266 53.3704 30.6558C53.2891 30.7784 53.2891 31.0183 53.3704 31.1063C53.3906 31.1286 53.4157 31.1463 53.4436 31.158C53.4715 31.1697 53.5016 31.1752 53.5316 31.174C53.6138 31.1696 53.6939 31.1476 53.7668 31.1096C53.8622 31.0686 53.9649 31.0476 54.0688 31.0478L54.0691 31.0465ZM50.4534 29.6776C50.4487 29.6776 50.4462 29.6824 50.4462 29.6917C50.4868 29.8789 50.5492 30.0606 50.6321 30.2332C50.7377 30.4417 50.8826 30.566 51.0196 30.566C51.0508 30.5657 51.0815 30.5588 51.1098 30.5458C51.1381 30.5327 51.1634 30.5138 51.1839 30.4903C51.294 30.3742 51.332 30.2578 51.291 30.1626C51.245 30.0546 51.1043 29.9927 50.9063 29.9927C50.8261 29.9822 50.749 29.9544 50.6807 29.9112C50.6123 29.8679 50.5542 29.8104 50.5105 29.7423C50.4852 29.7027 50.4639 29.6786 50.4531 29.6786L50.4534 29.6776ZM53.5406 29.8653C53.4295 29.861 53.3185 29.872 53.2103 29.898C53.1852 29.9067 53.1623 29.9207 53.1434 29.9394C53.1246 29.9579 53.1101 29.9806 53.1012 30.0056C53.0909 30.0358 53.0874 30.0679 53.091 30.0998C53.0946 30.1315 53.1053 30.162 53.122 30.1892C53.1378 30.2267 53.1635 30.2593 53.1962 30.2837C53.2288 30.308 53.2674 30.3231 53.3079 30.3274C53.3532 30.3215 53.3962 30.3038 53.4326 30.276C53.4688 30.2481 53.497 30.2112 53.5145 30.1689C53.5539 30.1023 53.6079 30.0453 53.6724 30.0025C53.7369 29.9598 53.8103 29.932 53.887 29.9216C53.8985 29.9206 53.904 29.9184 53.9042 29.9153C53.9042 29.909 53.8826 29.8999 53.8467 29.8914C53.7463 29.8717 53.6442 29.8629 53.5419 29.8654L53.5406 29.8653ZM51.5082 29.1971L51.4505 29.4037C51.3861 29.6341 51.3764 29.864 51.4275 29.962C51.4438 29.985 51.4659 30.0032 51.4917 30.0147C51.5174 30.0261 51.5459 30.0305 51.5738 30.0273C51.7096 30.0273 51.8674 29.9439 51.8674 29.8367C51.8316 29.759 51.7796 29.6898 51.7152 29.6336C51.6273 29.5564 51.5658 29.4535 51.5393 29.3395L51.5089 29.1971H51.5082ZM53.0266 28.9148C52.9449 28.9421 52.8677 28.9814 52.7974 29.0311C52.5125 29.204 52.3567 29.3334 52.2764 29.4644C52.1794 29.6177 52.1866 29.6999 52.3065 29.8029C52.3841 29.8717 52.4833 29.9115 52.587 29.9153C52.6388 29.9165 52.6897 29.9021 52.733 29.8738C52.8222 29.819 52.8209 29.8017 52.8042 29.5894C52.7838 29.3245 52.8334 29.1509 52.9697 29.0075C53.0175 28.9573 53.0388 28.9283 53.0345 28.9186C53.0334 28.9174 53.0312 28.9162 53.0269 28.9162L53.0266 28.9148Z" fill="#CC6D00"/>
<path d="M41.0654 30.6739C40.5382 30.8682 40.0389 31.0762 39.9557 31.1457C39.8865 31.2148 40.3579 31.0764 40.996 30.8404C41.6479 30.6046 42.2028 30.3965 42.2304 30.3548C42.3552 30.2299 41.9946 30.3271 41.0654 30.6739Z" fill="#CC6D00"/>
<path d="M62.5092 30.3554C62.537 30.3969 63.0918 30.605 63.7437 30.8408C64.3816 31.0767 64.8534 31.2155 64.784 31.1461C64.7008 31.077 64.1875 30.8548 63.6328 30.6606C62.634 30.3137 62.3843 30.2443 62.5092 30.3554Z" fill="#CC6D00"/>
<path d="M46.9878 34.0313C46.7382 34.1004 46.4885 34.1837 46.4463 34.2393C46.3215 34.3642 47.8612 35.0023 49.0401 35.3213C49.7475 35.5156 50.6768 35.6266 51.953 35.6683C54.1168 35.7374 55.6148 35.4879 57.4458 34.7248C58.4306 34.3224 58.486 34.2671 58.181 34.1422C57.5703 33.9064 56.35 33.9756 55.2126 34.3086C53.6591 34.7525 51.121 34.7525 49.5258 34.3086C48.2082 33.9479 47.6121 33.8785 46.9878 34.0313Z" fill="#CC6D00"/>
<path d="M45.0183 34.6002C45.0183 34.8083 47.1822 35.7932 48.5692 36.2234C49.7204 36.5701 49.9701 36.5979 52.3696 36.5979C54.7693 36.5979 55.0191 36.5701 56.1702 36.2234C57.5573 35.7932 59.7212 34.8083 59.7212 34.6002C59.7212 34.3505 59.2217 34.4619 58.2509 34.9331C56.2397 35.9181 54.1039 36.3343 51.6763 36.2237C49.7899 36.1265 48.3335 35.7797 46.6967 35.0023C45.5455 34.461 45.0183 34.3362 45.0183 34.6002Z" fill="#CC6D00"/>
<path d="M31.2448 32.8101C30.4269 33.0044 29.9825 33.2818 29.3723 33.9755C28.6787 34.7662 28.3735 35.6264 28.3735 36.8195C28.3735 39.6496 30.371 41.9664 33.4502 42.7432C33.9774 42.8815 34.435 43.0068 34.4627 43.0206C34.5044 43.0485 34.3936 43.201 34.2269 43.3815C34.0602 43.5618 33.9217 43.756 33.9217 43.8254C33.9217 44.0056 35.7388 43.7837 36.5849 43.4924C37.3894 43.2149 38.3465 42.6743 38.9012 42.1744L39.2202 41.883L39.1231 42.3269C39.0816 42.5767 39.0816 42.7848 39.1508 42.7848C39.3868 42.7848 40.538 41.9524 41.6475 40.995C43.2569 39.6079 44.144 38.9836 45.2268 38.4426C47.6125 37.2634 49.3464 37.1108 50.234 37.9987C50.4836 38.2484 50.567 38.4843 50.567 38.9559C50.567 39.4832 50.5115 39.6219 50.1231 39.9271L49.6793 40.2739L50.0122 40.3988C50.2355 40.4795 50.4792 40.4843 50.7056 40.4126C51.0385 40.2877 51.0385 40.3016 50.7888 40.4958C50.623 40.6108 50.4334 40.6867 50.234 40.7178C49.9426 40.7178 49.9426 40.7316 50.2202 40.8427C50.4838 40.9536 50.4838 40.9676 50.2065 40.9676C49.9762 40.9566 49.7565 40.8687 49.5823 40.7179C49.2771 40.4683 49.2771 40.4404 49.4441 39.6775C49.5967 38.9699 49.5967 38.8451 49.3609 38.4427C49.0142 37.8462 48.6396 37.8184 48.1397 38.3456C47.391 39.1364 47.6404 40.6625 48.5976 41.1064C49.0275 41.3145 49.083 41.3005 48.9859 41.0508C48.9168 40.8565 48.9304 40.8565 49.2079 41.0508C49.6102 41.3283 50.3453 41.3145 50.7892 41.037C51.2746 40.704 51.538 40.1352 51.538 39.3583C51.538 38.4983 51.1773 37.8324 50.4422 37.3191C49.9428 36.9583 49.7347 36.9029 48.6528 36.8474C47.0578 36.7781 45.2683 37.1525 42.0366 38.2346C40.0808 38.8866 39.2902 39.0809 38.4303 39.1364C37.3623 39.2055 37.2929 39.192 36.8628 38.8313C36.3358 38.3873 36.2388 37.6243 36.6687 37.3885C37.0848 37.1664 37.2927 37.4023 37.0848 37.8603C36.9322 38.1932 36.9465 38.2625 37.1818 38.4291C37.5564 38.7064 37.8754 38.6649 38.3054 38.2908C39.0541 37.6526 38.6661 36.4179 37.6396 36.1958C37.0709 36.0709 36.294 36.5149 35.9612 37.1393C35.5451 37.9439 35.7254 38.7763 36.4744 39.5117L37.0569 40.0943L36.4882 40.3301C34.3244 41.2319 31.9386 41.0655 30.6071 39.9278C28.6513 38.2492 28.8318 35.4608 30.9678 34.656C31.5919 34.4064 32.3271 34.4618 33.1594 34.8086C33.4089 34.9195 33.4229 34.9057 33.2285 34.6704C32.951 34.3374 32.2437 34.0461 31.675 34.0321C31.2172 34.0183 31.2172 34.0183 31.5918 33.9073C32.5766 33.6158 33.769 34.3374 33.7832 35.239C33.7832 35.7939 33.6723 35.891 33.3117 35.6414C32.507 35.0725 31.2864 35.7384 31.2864 36.7513C31.2864 38.7075 33.9913 39.2206 35.1425 37.4865C35.7804 36.5154 35.6695 34.5038 34.9482 33.9074C34.7817 33.7546 34.754 33.8103 34.754 34.1987V34.6564L34.4488 34.0458C33.9357 33.0322 32.5348 32.4911 31.2448 32.8101Z" fill="#CC6D00"/>
<path d="M71.9963 32.7829C71.4416 32.9213 70.7753 33.2825 70.5539 33.5459C70.4037 33.7773 70.2781 34.0237 70.1795 34.2813L69.9991 34.8085L69.9853 34.2813C69.9853 33.6293 69.7773 33.7125 69.4166 34.5171C68.806 35.8767 69.2501 37.5553 70.4015 38.1935C71.8716 39.0115 73.453 38.2626 73.453 36.7508C73.453 35.7379 72.2318 35.0721 71.4278 35.6409C71.0671 35.8767 70.9562 35.7934 70.9562 35.2663C70.9562 34.6837 71.6081 34.045 72.3432 33.9068C72.6761 33.8511 73.0784 33.8511 73.231 33.9068C73.4806 34.0039 73.453 34.0316 73.0645 34.0316C72.4958 34.0454 71.7884 34.3369 71.511 34.6699C71.3167 34.9057 71.3307 34.9195 71.5801 34.8223C72.8145 34.309 73.7717 34.42 74.6316 35.1691C75.9632 36.3345 75.7689 38.471 74.2155 39.8444C72.9254 40.9681 70.9282 41.2039 68.7645 40.4964L67.6133 40.108L68.0848 39.7197C68.9725 38.9843 69.236 37.9855 68.7645 37.1115C68.1264 35.9184 66.5313 35.8902 66.0875 37.0698C65.9349 37.4722 66.2399 38.2629 66.6289 38.471C67.3085 38.8319 67.9327 38.471 67.6552 37.8745C67.461 37.4583 67.683 37.1809 68.0713 37.3889C68.5014 37.6248 68.4042 38.3878 67.8771 38.8317C67.447 39.1924 67.3778 39.2062 66.3098 39.137C65.4498 39.0953 64.7284 38.9149 63.1196 38.3599C59.7074 37.1808 58.5284 36.9172 56.5726 36.9033C54.922 36.8895 54.8803 36.8895 54.2978 37.3057C53.9639 37.5487 53.6811 37.8551 53.4656 38.2074C52.9663 39.123 53.216 40.5519 53.9372 41.0237C54.4089 41.329 55.2549 41.329 55.5878 41.0237C55.8375 40.8017 55.8375 40.8017 55.7543 41.0237C55.6434 41.315 55.7405 41.315 56.2398 41.0515C56.6837 40.8294 57.0858 40.0942 57.0858 39.5254C57.0858 38.6791 56.3091 37.7635 55.7681 37.9855C55.3937 38.1238 55.1023 38.9983 55.2688 39.4977C55.3552 39.7339 55.4067 39.9816 55.4214 40.2329C55.4214 40.5937 54.9498 40.9819 54.5198 40.9683C54.2423 40.9683 54.2423 40.9682 54.5198 40.8434C54.7971 40.7324 54.7971 40.7185 54.506 40.7185C54.3066 40.6874 54.1169 40.6115 53.9511 40.4964C53.7015 40.3022 53.7015 40.2884 54.0343 40.4132C54.2555 40.4827 54.4928 40.4827 54.7141 40.4132L55.033 40.2884L54.603 39.886C54.2561 39.5669 54.1729 39.3728 54.1729 38.9149C54.1729 38.1935 54.5751 37.7356 55.4073 37.5137C57.0996 37.0559 59.9569 38.3044 62.7727 40.7183C64.2151 41.967 65.3388 42.7855 65.5883 42.7855C65.6574 42.7855 65.6574 42.5774 65.6162 42.3277L65.5191 41.8838L65.8381 42.1889C66.3234 42.619 67.461 43.2571 68.2515 43.5208C69.0002 43.7844 70.8176 43.9925 70.8176 43.8399C70.8176 43.7707 70.6927 43.5762 70.5403 43.3681L70.2489 43.0213L71.2199 42.7717C73.453 42.2029 75.0205 40.996 75.8392 39.2202C76.6438 37.4583 76.519 35.4328 75.5202 34.0733C74.8121 33.1165 73.1197 32.4916 71.9963 32.7829Z" fill="#CC6D00"/>
<path d="M39.8167 33.0886C39.0122 33.5047 37.5281 34.4758 37.5281 34.5864C37.5281 34.642 37.8889 34.7529 38.3327 34.8501C38.7628 34.9471 39.359 35.0859 39.6642 35.1691L40.1914 35.3216L40.0943 36.709L39.9971 38.1101L40.6213 37.6662C41.4258 37.1112 43.6173 36.0569 44.561 35.7517C44.9633 35.6268 45.2962 35.4742 45.2962 35.4187C45.2962 35.3631 45.0604 35.1829 44.783 35.0163C44.2697 34.7111 44.2416 34.7111 43.4928 34.9472C43.0767 35.0854 42.6606 35.2247 42.5635 35.2525C42.4803 35.294 41.981 34.7529 41.4538 34.0594C40.9406 33.3658 40.4828 32.7969 40.4413 32.7969C40.3993 32.811 40.1219 32.9354 39.8167 33.0886Z" fill="#CC6D00"/>
<path d="M63.2859 34.0592C62.7588 34.7529 62.2595 35.2938 62.1762 35.2523C62.0791 35.2246 61.6629 35.0859 61.247 34.9471C60.4981 34.7112 60.4701 34.7112 59.9567 35.0162C59.6794 35.1827 59.4713 35.3631 59.5129 35.4324C59.5406 35.488 59.9705 35.6682 60.4422 35.8486C61.5379 36.2509 63.355 37.1389 64.1457 37.6936L64.7562 38.1098L64.659 36.7087L64.5481 35.3075L65.0895 35.1692C65.3808 35.086 65.9772 34.9472 66.421 34.8502C66.8511 34.7531 67.2116 34.6421 67.2116 34.5866C67.2116 34.4201 64.604 32.7969 64.3405 32.7969C64.2707 32.7967 63.7991 33.3657 63.2859 34.0592Z" fill="#CC6D00"/>
<path d="M45.8784 38.4847C43.9084 39.3727 42.3419 40.6767 42.1749 41.5785C42.05 42.2028 42.1887 42.8409 42.4939 43.1046C42.9377 43.4929 44.1168 44.034 44.5052 44.034C44.9628 44.034 45.7118 43.368 45.7118 42.9658C45.7074 42.733 45.6119 42.5113 45.4461 42.3479C45.2802 42.1846 45.057 42.0926 44.8241 42.0917C44.2971 42.0917 44.0474 42.2998 44.0474 42.7437C44.0474 42.9935 44.1306 43.0628 44.3941 43.0628C44.7825 43.0628 44.8658 43.3957 44.5191 43.5346C44.2277 43.6455 43.6869 43.2987 43.562 42.9379C43.4238 42.5079 43.8533 41.8559 44.727 41.176C45.4483 40.6072 45.8644 40.1772 46.1973 39.5945C46.2664 39.4835 46.0308 39.6499 45.6702 39.969C44.7825 40.7871 44.727 40.718 45.5319 39.8163C46.2255 39.0257 46.7803 38.2071 46.5862 38.2209C46.3441 38.2916 46.1075 38.3798 45.8784 38.4847Z" fill="#CC6D00"/>
<path d="M58.1955 38.4985C58.4894 38.9166 58.8041 39.3194 59.1387 39.7055C59.9015 40.6213 59.8322 40.649 58.9029 39.8165C58.5839 39.5114 58.4868 39.4697 58.5839 39.664C58.8197 40.0941 59.3052 40.6075 60.1097 41.2595C61.2888 42.2166 61.4968 42.938 60.7478 43.4236C60.4843 43.604 60.3732 43.6179 60.2064 43.4792C59.9012 43.2295 59.9567 43.063 60.3312 43.063C60.7474 43.063 60.8727 42.7716 60.6086 42.3833C60.1647 41.7451 59.0273 42.1752 59.0273 42.9659C59.0273 43.3821 59.776 44.0341 60.2617 44.0341C60.7611 44.0341 62.1343 43.3127 62.4256 42.8825C62.6753 42.5358 62.6892 41.856 62.4812 41.301C62.176 40.4686 60.8028 39.3999 59.069 38.5957C58.029 38.1237 58.0013 38.1237 58.1955 38.4985Z" fill="#CC6D00"/>
<path d="M46.9048 39.6078C46.6133 39.9405 46.5442 40.1766 46.5442 40.7594C46.5442 41.5223 46.7106 41.8136 47.1406 41.8136C47.3626 41.8136 47.3903 41.7445 47.3072 41.4253C47.1129 40.6763 47.0714 39.7604 47.224 39.4691C47.4458 39.0533 47.3209 39.1084 46.9048 39.6078Z" fill="#CC6D00"/>
<path d="M57.5712 40.1768C57.5712 40.6624 57.5158 41.2174 57.4464 41.4255C57.3492 41.7585 57.3773 41.8138 57.599 41.8138C58.0289 41.8138 58.1954 41.5225 58.1954 40.7595C58.1954 40.2045 58.1263 39.9414 57.8902 39.6634L57.5712 39.3027V40.1768Z" fill="#CC6D00"/>
<path d="M52.1616 40.0396C52.0368 40.5668 50.7609 41.8987 50.2337 42.0373C50.0394 42.0789 49.873 42.1756 49.873 42.2454C49.873 42.4118 50.4971 42.5507 50.9688 42.4813C51.3294 42.4258 51.3849 42.4675 51.4541 42.8558C51.5554 43.1854 51.7203 43.4918 51.9396 43.7577L52.3418 44.2431L52.7026 43.8964C52.952 43.6429 53.1376 43.3339 53.244 42.9946C53.4104 42.4397 53.4104 42.4397 54.09 42.4397C54.8389 42.4397 55.1027 42.176 54.5061 42.0373C53.9791 41.8991 52.7031 40.5668 52.5782 40.0396C52.5365 39.7899 52.44 39.5957 52.3701 39.5957C52.3003 39.5957 52.2035 39.7899 52.1616 40.0396Z" fill="#CC6D00"/>
<path d="M57.2244 40.2324C57.044 40.7041 56.4199 41.3978 56.1701 41.3978C55.995 41.4414 55.8331 41.5271 55.6986 41.6474C55.4351 41.8694 55.4211 41.911 55.6015 42.0636C56.1429 42.5075 57.2521 41.5919 57.4324 40.5657C57.5433 39.8717 57.4324 39.6776 57.2244 40.2324Z" fill="#CC6D00"/>
<path d="M47.293 40.3168C47.337 40.4989 47.3649 40.6847 47.3762 40.8717C47.3762 41.2186 48.153 42.051 48.5691 42.1481C48.9158 42.2453 49.3178 42.051 49.3178 41.8013C49.3178 41.7322 49.0682 41.5793 48.763 41.4546C48.1804 41.2186 47.5146 40.5526 47.5146 40.2059C47.5199 40.1599 47.5069 40.1139 47.4783 40.0775C47.4499 40.0411 47.4082 40.0174 47.3623 40.0117C47.2651 40.0117 47.2374 40.1366 47.293 40.3168Z" fill="#CC6D00"/>
<path d="M69.5538 31.6795C69.5454 31.6579 69.5385 31.6405 69.532 31.6243C69.6728 31.5846 69.8321 31.5333 70.0064 31.4721C69.867 31.5639 69.7144 31.6337 69.5541 31.6795H69.5538ZM70.5798 30.6728C70.3725 29.696 70.0299 28.3698 69.9484 28.2992C69.8811 28.2356 69.5222 27.9501 69.0947 27.6208C68.7576 27.3581 68.4401 27.0715 68.1445 26.7629C68.0014 26.5704 67.8792 26.363 67.78 26.1444C67.743 26.029 67.6739 25.9267 67.5809 25.8493C67.5759 25.8465 67.5705 25.8447 67.5649 25.8441C67.5593 25.8435 67.5536 25.8441 67.5483 25.8457C67.4869 25.8758 67.2523 25.8591 67.0599 25.8308L66.675 25.7637L66.9704 26.0472C67.1264 26.199 67.2443 26.3768 67.2277 26.4361C67.2063 26.5067 67.098 26.7659 67.0107 26.9741C66.9207 27.1816 66.8535 27.3983 66.8106 27.6205C66.7882 27.8164 66.6262 27.8832 65.7925 28.0426C65.2681 28.1441 64.775 28.295 64.739 28.3475C64.6538 28.4504 64.5404 28.5261 64.4126 28.5653C64.2397 28.6277 64.1561 28.6605 64.1303 28.7203C64.1033 28.7834 64.1408 28.8761 64.2149 29.0484L64.2158 29.0493C64.2148 29.0527 64.2139 29.0563 64.2132 29.0597C64.2004 29.1481 64.164 29.2313 64.108 29.3007C64.0518 29.3699 63.978 29.4229 63.8943 29.4537C63.6025 29.5568 63.0554 29.2046 63.0554 29.2046C62.9235 29.0845 62.8056 28.9498 62.7044 28.8029C62.6522 28.7222 62.6268 28.6269 62.6318 28.531C62.6368 28.4348 62.672 28.3428 62.7323 28.268C62.7481 28.2359 62.7713 28.208 62.7999 28.1864C62.8285 28.1648 62.8617 28.1503 62.8969 28.1438C62.9323 28.1375 62.9685 28.1394 63.0028 28.1497C63.0372 28.1598 63.0686 28.178 63.0947 28.2025V28.2015C63.1507 28.1434 63.1977 28.0769 63.2335 28.0044C63.3055 27.8772 63.4188 27.7781 63.5544 27.7237C63.8235 27.6191 64.1019 27.5401 64.3859 27.488C65.1669 27.3121 65.5184 27.2177 65.607 27.0532C65.6546 26.9647 65.6289 26.8549 65.5724 26.7067C65.5168 26.5424 65.4933 26.4525 65.5212 26.4186C65.5359 26.4007 65.5655 26.3969 65.6233 26.4047C65.6384 26.4087 65.6471 26.4084 65.6491 26.4047C65.6585 26.3817 65.4659 26.2461 65.1804 26.0755C64.0007 25.3694 63.4732 24.7899 63.655 24.3999C63.7137 24.2739 63.9285 24.1351 64.2761 23.9967C64.7161 23.8335 65.1688 23.7063 65.6295 23.6166C66.2112 23.4992 66.6973 23.4553 66.7698 23.4891C66.7766 23.4918 66.7798 23.496 66.7791 23.5005C66.7763 23.5274 66.637 23.5748 66.3866 23.6339C65.8826 23.7485 65.5916 23.8305 65.5887 23.8592C65.5887 23.8611 65.5899 23.8631 65.5931 23.8647C65.7789 23.8683 65.9643 23.8509 66.1461 23.8129C66.7191 23.7406 66.916 23.7225 67.0562 23.7876C67.1261 23.8248 67.1871 23.8766 67.2351 23.9396C67.4939 24.2288 67.6321 24.6061 67.6213 24.994C67.6166 25.0512 67.623 25.1089 67.6403 25.1636C67.6408 25.1639 67.6412 25.1639 67.6417 25.1639C67.6421 25.1639 67.6425 25.1639 67.643 25.1636C67.6491 25.1604 67.6566 25.1368 67.6651 25.0933C67.6951 24.978 67.7608 24.7162 67.8083 24.5207C67.8698 24.2077 67.8415 23.8834 67.7265 23.5858L67.5507 23.0212L67.6144 23.488C67.6569 23.7949 67.6587 23.9374 67.6204 23.9663C67.6148 23.9698 67.6085 23.9716 67.6019 23.9716C67.5953 23.9716 67.589 23.9698 67.5834 23.9663C67.5171 23.9187 67.4609 23.8584 67.418 23.789C67.0791 23.3483 66.3907 22.8723 65.4269 22.4118C64.9469 22.1915 64.4801 21.9438 64.0287 21.6698L63.6427 21.4115L63.9981 21.3977C64.4252 21.3732 65.2882 21.0212 65.512 20.7809C65.6032 20.6848 65.6512 20.5747 65.637 20.5364C65.6365 20.5307 65.6348 20.5253 65.6318 20.5204C65.6289 20.5156 65.6249 20.5113 65.6201 20.5083C65.6016 20.4998 65.5758 20.5226 65.5558 20.5659C65.5145 20.655 65.2386 20.7997 64.8532 20.9346C64.5448 21.0429 64.1264 21.1566 63.8764 21.1506C63.5161 21.1229 63.1638 21.0286 62.8378 20.8726C62.6765 20.812 62.5329 20.7125 62.4195 20.583C62.397 20.5496 62.3909 20.527 62.4001 20.5131C62.4193 20.4857 62.4994 20.4911 62.6688 20.5312C62.8555 20.5862 63.0518 20.6012 63.2448 20.5753C63.3139 20.5609 63.3607 20.5474 63.3626 20.5282C63.3644 20.5135 63.3412 20.4958 63.287 20.4705C63.2235 20.4411 63.1215 20.4028 62.9876 20.3546C62.9066 20.3278 62.8271 20.2965 62.7496 20.2608C62.5597 20.177 62.3917 20.0505 62.2587 19.8913C62.243 19.8718 62.228 19.8536 62.2141 19.8363C62.1592 19.7541 62.0915 19.6813 62.0135 19.6207C62.0079 19.6176 62.0016 19.6159 61.9953 19.6153C61.9888 19.6147 61.9824 19.6154 61.9764 19.6176C61.9404 19.6306 61.9112 19.6932 61.8585 19.8074L61.8578 19.8089C61.8516 19.8226 61.8449 19.8369 61.838 19.852C61.8018 19.9446 61.7394 20.0246 61.6584 20.0824C61.5776 20.1402 61.4816 20.1734 61.3821 20.1776C61.0342 20.2134 60.797 20.5143 60.6127 21.1528C60.5511 21.4062 60.5873 21.5223 60.7885 21.7173C60.8572 21.773 60.9123 21.8434 60.9503 21.9232C60.9882 22.0031 61.0077 22.0904 61.0073 22.1789C60.9958 22.4683 60.752 22.7979 60.2606 23.1866C60.2302 23.2185 60.1912 23.2406 60.1483 23.2503C60.1053 23.2601 60.0606 23.2569 60.0195 23.2413C59.9881 23.2243 59.961 23.2005 59.9398 23.1718C59.9186 23.143 59.904 23.1099 59.8971 23.0749C59.8882 23.0447 59.886 23.013 59.8907 22.982C59.8954 22.9509 59.9068 22.9213 59.9244 22.8952C59.9946 22.7977 60.0204 22.7543 60.0164 22.7396C60.0163 22.7387 60.016 22.7378 60.0154 22.7371C60.0148 22.7364 60.0141 22.7359 60.0133 22.7355C60.0032 22.7307 59.9712 22.7458 59.9071 22.7861C59.86 22.8084 59.809 22.8211 59.757 22.8233C59.7051 22.8255 59.6531 22.8171 59.6044 22.7989C59.5925 22.7954 59.581 22.791 59.5698 22.7855C59.5063 22.7524 59.446 22.7135 59.3896 22.6692L59.3563 22.6366L59.3524 22.6451C59.3276 22.5923 59.3072 22.543 59.2915 22.4986C59.1271 22.0368 59.2879 21.7994 59.3986 21.6986C59.4401 21.6545 59.4942 21.6243 59.5535 21.6123L59.7385 21.2165C59.8385 21.0021 59.8685 20.8996 59.8363 20.8847C59.8241 20.8788 59.8025 20.8861 59.7705 20.9063C59.7346 20.9293 59.7123 20.9382 59.7024 20.9335C59.7011 20.933 59.6999 20.9321 59.6991 20.9311C59.6982 20.9299 59.6975 20.9287 59.6972 20.9272C59.691 20.9057 59.7246 20.838 59.8103 20.7005C59.8286 20.6694 59.8522 20.6304 59.8794 20.5853L59.8848 20.5762L59.8907 20.5664C60.0085 20.3715 60.1865 20.077 60.3232 19.8405C60.5075 19.5159 60.7368 19.2191 61.0045 18.9587C61.3485 18.6519 61.4019 18.642 62.1473 18.7512C62.5044 18.8035 62.9364 18.8636 62.9663 18.8526C62.9849 18.7547 62.9819 18.6539 62.9577 18.5572C62.9315 18.3745 62.9562 18.1883 63.0288 18.0186C63.0334 18.009 63.0385 17.9962 63.0451 17.98L63.0474 17.9748C63.1482 17.7206 63.2979 17.4886 63.4881 17.2919C63.8437 16.9151 64.352 16.6051 65.0011 16.3709C65.4308 16.1193 65.8475 15.8457 66.2494 15.5516C66.8062 15.1049 67.0304 14.2101 66.7196 13.6743C66.6711 13.5696 66.5995 13.4771 66.5104 13.4037C66.5059 13.4005 66.5006 13.3988 66.495 13.3988C66.4896 13.3988 66.4842 13.4005 66.4798 13.4037C66.4544 13.4267 66.4682 13.5237 66.5191 13.6698C66.5541 13.7587 66.5676 13.8547 66.5584 13.9498C66.5493 14.0449 66.5176 14.1365 66.4663 14.2171C66.4057 14.2996 66.369 14.3554 66.3753 14.379C66.3757 14.3816 66.3769 14.3839 66.3785 14.3859C66.3803 14.3879 66.3823 14.3895 66.3847 14.3905C66.4167 14.396 66.4497 14.3927 66.4799 14.3808C66.518 14.3659 66.5594 14.3624 66.5995 14.3705C66.6246 14.382 66.6213 14.416 66.588 14.4873C66.4583 14.7659 65.984 15.0578 65.5935 15.0999C65.3958 15.1249 65.302 15.1397 65.2983 15.1641C65.2954 15.1833 65.3501 15.2101 65.4339 15.2496C65.5296 15.2944 65.5814 15.324 65.5814 15.3534C65.5814 15.3795 65.5371 15.405 65.4709 15.4354C65.3206 15.5402 65.1953 15.6771 65.1041 15.836C64.8816 16.2163 64.4864 16.4896 64.2906 16.3984C64.2512 16.3756 64.2218 16.3386 64.2088 16.2951C64.1957 16.2515 64.1998 16.2044 64.2202 16.1637C64.2529 16.0798 64.2622 16.0485 64.2547 16.045C64.2472 16.0416 64.2227 16.0667 64.1649 16.1377C64.1416 16.1746 64.1075 16.2036 64.0673 16.2208C64.0271 16.2381 63.9828 16.243 63.9398 16.2346C63.5814 16.0563 63.5828 15.3827 63.9439 14.633C64.1025 14.3166 64.2246 13.9363 64.2157 13.7846C64.2466 13.5351 64.3281 13.2947 64.455 13.0778L64.7062 12.6116L64.3162 12.3628L63.9216 12.1226L64.5091 12.1166L65.1013 12.1012L64.9883 11.8131C64.9466 11.6908 64.9397 11.6087 64.9695 11.5818C64.9838 11.5688 65.0055 11.5691 65.0338 11.5826C65.1245 11.6403 65.2021 11.7165 65.2615 11.8062C65.2882 11.8489 65.3255 11.8839 65.3696 11.908C65.4477 11.9443 65.547 11.9212 65.7632 11.8159C66.122 11.6386 66.5304 11.5879 66.9217 11.6722C66.9931 11.6793 67.0637 11.6938 67.1322 11.7155C67.145 11.7214 67.151 11.727 67.1512 11.7348C67.1512 11.7536 67.1076 11.7783 67.0216 11.8199C66.781 11.9243 66.6478 12.0029 66.6473 12.041C66.6475 12.0448 66.6489 12.0483 66.6511 12.0512C66.6535 12.0541 66.6567 12.0563 66.6602 12.0573C66.7172 12.0698 66.7761 12.0695 66.8331 12.0566C66.9909 12.0385 67.3859 12.1121 67.713 12.2205C67.9941 12.3196 68.2869 12.3809 68.5842 12.4028C68.7003 12.3961 68.8147 12.3952 68.8702 12.3946H68.878C68.8881 12.3946 68.8957 12.3946 68.9008 12.3946H68.9035C68.9039 12.3945 68.9047 12.3945 68.9051 12.3946C68.9061 12.3946 68.9067 12.3956 68.9071 12.397C68.8665 12.5054 68.8099 12.6071 68.739 12.6987C68.6384 12.8423 68.5867 12.9198 68.6021 12.9775C68.6165 13.0318 68.6899 13.0683 68.8288 13.1332C69.255 13.332 69.6918 13.7332 69.8453 14.0664L69.9721 14.3496L69.702 14.1567C69.6314 14.1039 69.5554 14.0589 69.4751 14.0224C69.3847 13.9779 69.2885 13.9463 69.1893 13.9287C69.1131 13.9183 69.0674 13.9165 69.0587 13.935C69.0448 13.9642 69.125 14.0449 69.3121 14.221C69.5722 14.469 69.7847 14.7625 69.9392 15.087C70.1465 15.5322 70.3123 15.9957 70.4345 16.4715C70.5879 17.0244 70.6555 17.3145 70.5998 17.3619C70.5883 17.3715 70.5723 17.3713 70.5502 17.3609C70.4607 17.3192 70.2809 17.1141 70.001 16.7733C69.9025 16.6409 69.7843 16.5244 69.6506 16.4277C69.6349 16.4202 69.6252 16.4205 69.6217 16.4277C69.5271 16.6308 69.5065 17.7491 69.5897 18.1617C69.7017 18.5669 69.8694 18.9546 70.0877 19.3139L70.4948 19.9858L70.155 19.7487C69.6946 19.4188 69.2993 19.0064 68.9893 18.5324C68.6947 18.0735 68.5424 17.6204 68.5606 17.2561C68.5685 17.0709 68.5618 16.9719 68.5402 16.9619C68.5389 16.9613 68.5374 16.9609 68.5358 16.9609C68.5343 16.9609 68.5329 16.9613 68.5315 16.9619C68.4907 16.9814 68.4099 17.2343 68.2911 17.7133C67.9479 19.1014 67.9382 19.7229 68.2479 20.4849L68.4395 20.9667L68.3244 20.4645C68.2635 20.1998 68.2463 19.9267 68.2736 19.6564C68.3018 19.5371 68.3188 19.4653 68.3352 19.4577C68.3361 19.4571 68.3371 19.4568 68.3382 19.4568C68.3392 19.4568 68.3402 19.4571 68.3411 19.4577C68.3632 19.468 68.3872 19.5895 68.4388 19.8561V19.8571C68.5823 20.5244 69.0888 21.2979 69.8648 22.0356C70.2736 22.4253 70.4819 22.5931 70.8366 22.7585C70.9479 22.8105 71.0809 22.8655 71.2675 22.9365C71.5483 23.0472 71.8435 22.8246 72.1302 22.6093C72.4328 22.3815 72.7457 22.1463 73.0502 22.2882C73.098 22.3108 73.1425 22.3399 73.1824 22.3748C73.5222 22.672 73.8869 22.9396 74.2725 23.1746C74.4132 23.2402 74.4865 23.3021 74.4735 23.3444C74.4584 23.3941 74.3239 23.4056 74.1232 23.3743C74.0949 23.3693 74.0809 23.369 74.0797 23.373C74.0786 23.3769 74.0951 23.3878 74.1312 23.4048C74.1816 23.4279 74.2675 23.4624 74.3868 23.5084C74.9645 23.7099 75.8668 23.7234 76.3983 23.5385L76.7865 23.4057L76.5465 23.7758C76.3846 24.008 76.1719 24.2002 75.9245 24.3377C75.7094 24.4554 75.6076 24.5175 75.6085 24.5527C75.6085 24.5606 75.6145 24.5671 75.6259 24.5725C75.6736 24.5947 75.8168 24.5956 76.1003 24.5878L76.56 24.5668L76.2969 24.7695C76.0203 24.9689 75.6963 25.0925 75.3573 25.1278C75.0326 25.1746 74.7013 25.1318 74.3992 25.004C74.3368 24.9752 74.2772 24.9406 74.2216 24.9004L74.2203 24.8992C74.1638 24.8543 74.1041 24.8135 74.0416 24.7771C74.0252 24.7696 74.0149 24.7681 74.0089 24.7731C73.9923 24.7878 74.0117 24.8512 74.0505 24.9776C74.0863 25.1108 74.167 25.2276 74.279 25.308C74.3452 25.3389 74.3713 25.357 74.3691 25.3705C74.3669 25.384 74.3311 25.3948 74.2452 25.405C74.155 25.416 73.8305 25.3237 73.5093 25.1738C73.2223 25.0596 72.9695 24.8737 72.7749 24.6339C72.6149 24.4199 72.5013 24.134 72.3948 23.6787C72.3353 23.4414 72.2419 23.2956 72.1092 23.2337C71.9575 23.1841 71.7928 23.1931 71.6474 23.259C71.6281 23.2654 71.6086 23.2719 71.5898 23.2783L71.5872 23.2791C71.4587 23.3222 71.3475 23.3598 71.2754 23.3262C71.2665 23.3221 71.2582 23.3168 71.2508 23.3106C71.2189 23.2833 71.1847 23.2592 71.1485 23.2386C71.1354 23.2324 71.1271 23.2318 71.1225 23.2362C71.1045 23.2534 71.1419 23.3514 71.2263 23.5566C71.45 24.085 71.4198 24.3967 71.0715 25.1437C70.9186 25.4749 70.7956 25.8192 70.7044 26.1722L70.6159 26.5796L70.5295 26.2814C70.4912 26.0413 70.4951 25.7964 70.5409 25.5578C70.583 25.3273 70.6292 25.0119 70.6439 24.8549C70.6532 24.7617 70.6536 24.7184 70.6454 24.7147C70.6445 24.7144 70.6436 24.7144 70.6427 24.7147C70.5973 24.7966 70.5634 24.8845 70.5425 24.9759C70.3088 25.748 70.2406 26.4766 70.3648 26.8771C70.4632 27.2041 70.5367 27.295 70.8014 27.4186C70.8269 27.43 70.8533 27.4424 70.8829 27.4553C70.9048 27.4641 70.928 27.4744 70.9513 27.4854C71.1218 27.5593 71.2779 27.6629 71.4122 27.7915C71.606 28.0521 71.5785 28.29 71.3209 28.5866C71.188 28.7332 71.1103 28.8901 71.1278 28.9766C71.1293 28.9878 71.1337 28.9982 71.1403 29.0073C71.1469 29.0163 71.1555 29.0236 71.1655 29.0285C71.1699 29.0305 71.1745 29.0318 71.179 29.0329C71.1836 29.0339 71.188 29.0355 71.1922 29.0374C71.2468 29.0628 71.2668 29.1742 71.2942 29.3281C71.3017 29.3701 71.3102 29.4194 71.3209 29.4713C71.3504 29.6156 71.3778 29.7417 71.4047 29.863C71.4657 30.1395 71.5229 30.4006 71.5813 30.7949C71.5856 30.8242 70.7713 31.2021 70.0073 31.4701C70.4362 31.1888 70.6031 30.7836 70.5798 30.6728ZM69.2577 22.8894C69.1974 22.9471 69.2095 23.7487 69.2461 24.4691C69.2847 25.2172 69.3588 26.0598 69.4378 26.2562L69.6142 26.6746L69.5014 26.2406C69.4468 26.0113 69.3943 25.2235 69.3814 24.4469C69.3733 23.6998 69.331 23.0109 69.2872 22.9117C69.2833 22.9019 69.277 22.8934 69.2687 22.8872C69.2674 22.8866 69.266 22.8864 69.2646 22.8864C69.2619 22.8865 69.2593 22.8877 69.2574 22.8896L69.2577 22.8894ZM73.597 24.1916C73.5928 24.197 73.5982 24.2086 73.6135 24.226C73.7721 24.3675 73.9531 24.4814 74.1494 24.5628C74.4461 24.7003 74.7556 24.8085 75.0732 24.8854C75.3872 24.958 75.5801 24.9558 75.6152 24.8794C75.6296 24.8489 75.6306 24.8305 75.6181 24.8246C75.185 24.8305 74.7564 24.7345 74.367 24.5446C74.2775 24.5028 74.1877 24.4572 74.0928 24.4048C73.9784 24.3442 73.8808 24.295 73.8024 24.2588C73.7421 24.2255 73.677 24.2014 73.6095 24.1873C73.6073 24.187 73.6049 24.1872 73.6029 24.1879C73.6007 24.1885 73.5986 24.1896 73.597 24.1913V24.1916ZM72.8493 23.9212C72.8388 23.9287 72.8366 23.9673 72.8421 24.046C72.8495 24.2893 73.1428 24.7554 73.3039 24.8305C73.3215 24.8405 73.3425 24.8431 73.362 24.8377C73.368 24.8364 73.3734 24.8333 73.3775 24.8287C73.3816 24.8243 73.3843 24.8186 73.385 24.8125C73.3857 24.7941 73.3651 24.772 73.3323 24.7568C73.2763 24.7307 73.1353 24.4918 73.0301 24.2457C72.9302 24.0232 72.8819 23.9322 72.8574 23.9209C72.8561 23.9204 72.8546 23.9199 72.8531 23.9199C72.8518 23.9199 72.8506 23.9204 72.8495 23.9209L72.8493 23.9212ZM73.7192 23.6859C73.7113 23.6974 73.7264 23.724 73.7688 23.7717C73.8278 23.8316 73.8982 23.879 73.9762 23.9108C74.4339 24.1006 74.9332 24.1681 75.4249 24.1066C75.6322 24.0626 75.7387 24.0291 75.7412 24.0068C75.7412 24.0027 75.7383 23.9989 75.731 23.9952C75.6842 23.9733 75.4788 23.9704 75.1205 23.9865C74.7726 23.9948 74.4266 23.9325 74.1032 23.8035C73.9872 23.7481 73.8649 23.7064 73.7392 23.6792C73.7357 23.6787 73.732 23.679 73.7285 23.68C73.7251 23.6812 73.7219 23.6831 73.7194 23.6857L73.7192 23.6859ZM72.7642 22.3905C72.849 22.5419 72.9588 22.6781 73.0888 22.7932C73.1032 22.8045 73.1187 22.8146 73.1348 22.8233C73.1434 22.8272 73.1489 22.8279 73.1507 22.8252C73.1608 22.8109 73.0894 22.7195 72.9688 22.5914C72.9102 22.5171 72.8436 22.4498 72.7701 22.3905C72.7688 22.3899 72.7674 22.3895 72.766 22.3893C72.7652 22.3892 72.7645 22.3895 72.7644 22.3903L72.7642 22.3905ZM68.1527 16.0151C68.1122 16.0905 68.0842 16.1719 68.0696 16.2563C68.0274 16.379 67.9314 16.6684 67.821 17.0027L67.8192 17.0078L67.7847 17.1107V17.1119C67.7398 17.2464 67.694 17.3847 67.65 17.5182C67.3466 18.4071 67.1677 19.3657 67.2747 19.5296C67.276 19.5312 67.2778 19.5327 67.2797 19.5335C67.2809 19.5343 67.2822 19.5346 67.2837 19.5346C67.285 19.5346 67.2861 19.5343 67.2873 19.5335C67.3152 19.5178 67.3478 19.3674 67.3689 19.1592C67.3903 18.9115 67.5982 18.1742 67.7926 17.574C67.9439 17.1129 68.0689 16.6436 68.1671 16.1683C68.1682 16.0647 68.165 16.0203 68.1555 16.0161C68.155 16.0159 68.1545 16.0159 68.154 16.0161C68.1537 16.0155 68.1534 16.0151 68.1528 16.0148L68.1527 16.0151ZM67.5988 16.373C67.0295 17.074 66.0751 18.6742 66.0028 19.0482C65.9731 19.1373 65.9592 19.2308 65.9615 19.3247C65.962 19.3249 65.9626 19.325 65.963 19.325C65.9636 19.325 65.9642 19.3249 65.9648 19.3247C65.9868 19.3168 66.0591 19.1687 66.2026 18.8611C66.4608 18.3572 66.7546 17.8722 67.0818 17.4101C67.4899 16.8154 67.7865 16.2798 67.7687 16.216C67.7686 16.2146 67.7681 16.2135 67.7673 16.2124C67.7665 16.2114 67.7655 16.2107 67.7645 16.2101C67.7633 16.2096 67.7621 16.2094 67.7609 16.2095C67.7413 16.2092 67.6855 16.2653 67.5987 16.3731L67.5988 16.373ZM66.993 16.3932C66.9105 16.5084 66.5173 16.8825 65.9416 17.3939C65.4602 17.8217 64.9682 18.3468 64.8447 18.5643L64.6142 18.9614L64.9493 18.5568C65.1509 18.3251 65.6644 17.8194 66.0708 17.4544C66.4233 17.153 66.7552 16.8283 67.0642 16.4825C67.1368 16.4041 67.1893 16.3091 67.2172 16.206C67.217 16.2044 67.2163 16.2028 67.2154 16.2014C67.2144 16.2001 67.2131 16.1991 67.2116 16.1983C67.2099 16.1976 67.2078 16.1972 67.2059 16.1972C67.1757 16.1969 67.0944 16.2717 66.9931 16.3929L66.993 16.3932ZM63.2694 18.3229C63.1252 18.5374 63.068 18.6881 63.0944 18.7837C63.1007 18.8054 63.1119 18.8253 63.127 18.8421C63.1422 18.8588 63.1609 18.872 63.1818 18.8804C63.2294 18.9002 63.2802 18.9112 63.3317 18.9129C63.3537 18.9168 63.3763 18.9159 63.398 18.9103C63.4197 18.9049 63.4399 18.8947 63.4574 18.8808C63.4851 18.8525 63.495 18.8038 63.49 18.7178C63.4731 18.442 63.74 17.8687 63.9665 17.6956C64.0559 17.6353 64.1087 17.5712 64.1071 17.5515C64.1071 17.5505 64.1068 17.5495 64.1062 17.5486C64.1055 17.5477 64.1047 17.547 64.1037 17.5465C64.0974 17.5438 64.0907 17.5423 64.0838 17.5426C63.9435 17.5418 63.4832 17.9776 63.2696 18.3224L63.2694 18.3229ZM68.7559 15.4193C68.7405 15.433 68.757 15.5381 68.8297 15.7364C68.9322 16.0583 68.973 16.397 68.9496 16.7341C68.8793 17.436 68.9481 17.9657 69.1431 18.2256C69.1723 18.2705 69.2079 18.3108 69.2489 18.3453C69.2503 18.3463 69.2519 18.3468 69.2536 18.3468C69.2553 18.3468 69.2569 18.3463 69.2584 18.3453C69.2732 18.3322 69.2434 18.2286 69.1834 18.0429C69.1007 17.686 69.0672 17.3195 69.0837 16.9535C69.1107 16.6148 69.0916 16.2739 69.0269 15.9404C68.9686 15.7687 68.8906 15.6042 68.7942 15.4504C68.787 15.4377 68.777 15.4269 68.765 15.4187C68.7635 15.4178 68.7619 15.4173 68.7601 15.4173C68.7594 15.4173 68.7587 15.4175 68.7579 15.4178C68.7572 15.4179 68.7565 15.4184 68.756 15.419L68.7559 15.4193ZM67.3159 14.1274C67.2813 14.1495 67.263 14.3149 67.268 14.5483C67.2794 14.958 67.2434 15.0569 66.9466 15.4301C66.759 15.6821 66.1687 16.2277 65.7089 16.6132C65.2156 17.026 64.7126 17.5209 64.5872 17.7155L64.3599 18.0583L64.6118 17.7833C65.0135 17.3857 65.4365 17.0103 65.8789 16.6587C66.4957 16.1493 66.8743 15.7791 67.1052 15.4577C67.3178 15.1952 67.4273 14.8641 67.4131 14.5265C67.3969 14.2996 67.3641 14.1425 67.329 14.1262C67.3272 14.1253 67.3252 14.1249 67.3231 14.1248C67.3208 14.1248 67.3184 14.1253 67.3164 14.1264L67.3159 14.1274ZM68.3908 14.089C68.3822 14.1021 68.51 14.2218 68.8259 14.5127C69.1462 14.7876 69.4364 15.0958 69.6915 15.432C69.741 15.508 69.7995 15.5777 69.866 15.6394C69.8689 15.6408 69.871 15.6408 69.8723 15.6394C69.8767 15.6347 69.8695 15.6125 69.8503 15.573C69.7245 15.346 69.5812 15.1291 69.4214 14.9246C69.2065 14.6617 68.9523 14.4335 68.6678 14.2481C68.5324 14.1618 68.4517 14.1118 68.4145 14.0944C68.4083 14.0909 68.4015 14.0885 68.3946 14.0874C68.3939 14.0873 68.3933 14.0873 68.3927 14.0875C68.3921 14.0878 68.3916 14.0882 68.3911 14.0887L68.3908 14.089ZM68.2222 13.177C68.2099 13.1783 68.203 13.182 68.2021 13.1875C68.1989 13.2064 68.2676 13.2502 68.3899 13.3075C68.6181 13.4173 68.8595 13.4973 69.1082 13.5455C69.1176 13.5468 69.1228 13.5455 69.1236 13.5427C69.0276 13.4634 68.9189 13.401 68.8019 13.3584C68.626 13.2683 68.437 13.207 68.2418 13.1766C68.2354 13.1763 68.2291 13.1763 68.2228 13.1767L68.2222 13.177ZM64.977 13.3565C64.9673 13.3811 64.9669 13.4085 64.976 13.4334C64.9851 13.4583 65.003 13.4791 65.0263 13.4917C65.0508 13.5031 65.0787 13.5043 65.1041 13.4951C65.1295 13.486 65.1501 13.4672 65.1616 13.4428C65.168 13.4308 65.1719 13.4176 65.1729 13.4041C65.1738 13.3905 65.1719 13.3769 65.1672 13.3642C65.1625 13.3514 65.1553 13.3398 65.1457 13.33C65.1363 13.3203 65.1249 13.3127 65.1123 13.3077C65.0986 13.3014 65.084 13.2982 65.069 13.2982C65.0498 13.298 65.031 13.3033 65.0147 13.3136C64.9984 13.3238 64.9855 13.3385 64.9774 13.356L64.977 13.3565ZM67.3206 12.3779C67.3192 12.3841 67.3285 12.3919 67.3498 12.401C67.4252 12.4311 67.503 12.4556 67.5821 12.4743C67.726 12.5267 67.8754 12.5626 68.0274 12.5813C68.038 12.5779 68.0438 12.5734 68.0441 12.5679C68.0451 12.5544 68.018 12.5345 67.9662 12.5103C67.7893 12.433 67.6019 12.3825 67.41 12.3605C67.3525 12.3622 67.3231 12.3678 67.3211 12.3774L67.3206 12.3779ZM65.9878 11.8882C65.8926 11.9343 65.8503 11.9588 65.8503 11.9678C65.8503 11.9684 65.8506 11.9689 65.8509 11.9694C65.8512 11.9699 65.8518 11.9702 65.8522 11.9705C65.905 11.969 65.9574 11.9595 66.0074 11.9424C66.089 11.9301 66.1672 11.9018 66.2378 11.8591C66.2426 11.8505 66.245 11.8406 66.2446 11.8307C66.2443 11.8273 66.2431 11.8239 66.241 11.8211C66.239 11.8183 66.2362 11.8161 66.233 11.8148C66.2262 11.812 66.2189 11.8107 66.2114 11.811C66.133 11.823 66.0573 11.849 65.9882 11.8878L65.9878 11.8882Z" fill="#CC6D00"/>
<path d="M14.6827 61.0424C14.6827 62.5237 14.4105 63.8144 13.8661 64.9144C13.3325 66.0145 12.5974 66.9293 11.6609 67.6591C10.7244 68.3998 9.6191 68.9498 8.34501 69.3092C7.0818 69.6794 5.72605 69.8646 4.27772 69.8646C3.72235 69.8646 3.18876 69.8156 2.67694 69.7176C2.16514 69.6304 1.71321 69.5052 1.32119 69.3419C0.929157 69.1784 0.618803 68.9824 0.39012 68.7537C0.150548 68.5358 0.0307617 68.2963 0.0307617 68.0348C0.0307617 67.8387 0.0579859 67.6373 0.112434 67.4303C0.166883 67.2343 0.248555 67.0547 0.357452 66.8912C0.466347 66.7278 0.602468 66.5917 0.765813 66.4828C0.918268 66.3739 1.0925 66.3194 1.28852 66.3194C1.4083 66.3194 1.51175 66.3793 1.59887 66.4992C1.69688 66.6189 1.79488 66.766 1.89289 66.9402C1.9909 67.1254 2.09979 67.3214 2.21959 67.5284C2.35026 67.7353 2.51361 67.9259 2.70962 68.1002C2.91653 68.2853 3.16154 68.4378 3.44467 68.5577C3.72779 68.6774 4.08172 68.7373 4.50641 68.7373C5.3449 68.7373 6.06363 68.5848 6.66256 68.2799C7.27238 67.9749 7.7733 67.5448 8.16533 66.9892C8.55736 66.4338 8.84594 65.7694 9.03106 64.996C9.22707 64.2337 9.32508 63.395 9.32508 62.4801V42.1727C9.32508 41.933 9.29785 41.7424 9.2434 41.6008C9.18896 41.4593 9.11272 41.3503 9.01473 41.2741C8.91672 41.1869 8.79693 41.1325 8.65536 41.1108C8.52468 41.078 8.37768 41.0618 8.21433 41.0618C7.97476 41.0618 7.67529 41.0998 7.31593 41.1761C6.96746 41.2522 6.59722 41.3667 6.20519 41.5192C5.81316 41.6717 5.4157 41.8623 5.01278 42.0909C4.62075 42.3088 4.26684 42.5594 3.95103 42.8424C3.64612 43.1257 3.39567 43.4415 3.19964 43.79C3.00363 44.1385 2.90562 44.5144 2.90562 44.9173C2.90562 45.2659 2.94919 45.5437 3.03631 45.7506C3.13431 45.9575 3.24321 46.1154 3.36299 46.2243C3.48278 46.3223 3.60256 46.3878 3.72235 46.4204C3.85303 46.4422 3.94559 46.4531 4.00004 46.4531C4.27228 46.4531 4.49552 46.4095 4.66976 46.3223C4.84399 46.2243 5.00188 46.1263 5.14345 46.0282C5.28501 45.9193 5.4157 45.8213 5.53548 45.7341C5.66616 45.6363 5.81316 45.5873 5.97651 45.5873C6.10718 45.5873 6.24331 45.6198 6.38487 45.6851C6.53733 45.7397 6.67344 45.8322 6.79323 45.9629C6.92392 46.0937 7.0328 46.2679 7.11992 46.4858C7.20703 46.6927 7.2506 46.9487 7.2506 47.2536C7.2506 47.6893 7.16349 48.065 6.98925 48.3809C6.8259 48.6968 6.60811 48.9635 6.33586 49.1815C6.07452 49.3884 5.76961 49.5463 5.42114 49.6552C5.08356 49.7532 4.74598 49.8022 4.4084 49.8022C3.88569 49.8022 3.412 49.7151 2.9873 49.5409C2.5735 49.3557 2.21959 49.1052 1.92555 48.7893C1.63153 48.4734 1.4083 48.1031 1.25585 47.6784C1.10339 47.2536 1.02716 46.8016 1.02716 46.3223C1.02716 45.5708 1.16328 44.8846 1.43553 44.2639C1.70777 43.6321 2.07801 43.0658 2.54627 42.5648C3.02541 42.0638 3.58079 41.6281 4.21239 41.2578C4.85488 40.8766 5.54637 40.5608 6.28687 40.3103C7.02735 40.0597 7.80053 39.8745 8.60635 39.7547C9.41219 39.624 10.218 39.5586 11.0239 39.5586C11.9168 39.5586 12.6083 39.6458 13.0983 39.8201C13.5993 39.9834 13.9641 40.1849 14.1928 40.4246C14.4323 40.6642 14.5739 40.9147 14.6174 41.1761C14.661 41.4374 14.6827 41.6554 14.6827 41.8296V61.0424ZM26.558 55.5204C26.558 55.2481 26.4708 55.0411 26.2966 54.8996C26.1223 54.758 25.8992 54.6871 25.6269 54.6871C25.2457 54.6871 24.8809 54.7743 24.5324 54.9486C24.1948 55.1228 23.8954 55.3787 23.6341 55.7164C23.3727 56.0541 23.1659 56.4734 23.0134 56.9744C22.861 57.4645 22.7847 58.0364 22.7847 58.6899C22.7847 59.3215 22.8282 59.8444 22.9154 60.2582C23.0134 60.6722 23.1386 61.0043 23.291 61.2548C23.4545 61.4944 23.6395 61.6632 23.8464 61.7612C24.0534 61.8592 24.2711 61.9083 24.4999 61.9083C24.7829 61.9083 25.0498 61.8375 25.3002 61.6959C25.5507 61.5434 25.7684 61.3528 25.9536 61.1242C26.1386 60.8954 26.2856 60.6395 26.3947 60.3562C26.5035 60.073 26.558 59.7899 26.558 59.5067V55.5204ZM23.9608 48.3645C23.5905 48.3645 23.2474 48.4081 22.9317 48.4953C22.6159 48.5824 22.3436 48.6913 22.115 48.8221C21.8863 48.9527 21.7065 49.0997 21.576 49.2631C21.4452 49.4155 21.3799 49.5626 21.3799 49.7042C21.3799 49.8675 21.4615 49.9874 21.625 50.0636C21.7991 50.129 21.9897 50.2106 22.1966 50.3087C22.4035 50.3958 22.5886 50.5266 22.7519 50.7008C22.9263 50.8643 23.0134 51.1202 23.0134 51.4687C23.0134 51.6974 22.9644 51.9099 22.8664 52.1058C22.7792 52.291 22.6539 52.4599 22.4906 52.6123C22.3382 52.7538 22.153 52.8683 21.9353 52.9555C21.7284 53.0316 21.5105 53.0698 21.2819 53.0698C20.6721 53.0698 20.1767 52.8629 19.7955 52.4489C19.4253 52.035 19.2401 51.485 19.2401 50.7988C19.2401 50.1345 19.4143 49.568 19.7627 49.0997C20.1112 48.6204 20.5631 48.2285 21.1186 47.9234C21.6848 47.6184 22.3219 47.3952 23.0297 47.2536C23.7375 47.1011 24.4453 47.0248 25.1532 47.0248C26.0026 47.0248 26.8138 47.1174 27.5871 47.3026C28.3602 47.4878 29.0408 47.7819 29.6289 48.1849C30.2278 48.5879 30.7014 49.0997 31.0499 49.7206C31.4092 50.3414 31.589 51.0929 31.589 51.9752V61.2058C31.589 61.3038 31.5944 61.4127 31.6053 61.5326C31.6161 61.6523 31.6434 61.7612 31.687 61.8592C31.7306 61.9573 31.7958 62.039 31.883 62.1043C31.9702 62.1698 32.0953 62.2023 32.2586 62.2023C32.4546 62.2023 32.6344 62.1316 32.7977 61.99C32.972 61.8375 33.1244 61.6851 33.255 61.5326L33.6635 61.8757C33.5 62.1043 33.304 62.3548 33.0754 62.6272C32.8467 62.8994 32.5691 63.1553 32.2423 63.395C31.9156 63.6346 31.5345 63.8361 31.0989 63.9995C30.6633 64.1629 30.1678 64.2445 29.6125 64.2445C28.9264 64.2445 28.3166 64.043 27.783 63.6401C27.2495 63.2262 26.901 62.5945 26.7376 61.7449C26.3891 62.2132 26.0243 62.6053 25.6431 62.9213C25.273 63.2371 24.8918 63.493 24.4999 63.6891C24.1078 63.8851 23.7103 64.0267 23.3074 64.1139C22.9154 64.2009 22.5179 64.2445 22.115 64.2445C21.5922 64.2445 21.0859 64.1629 20.5958 63.9995C20.1058 63.8361 19.6647 63.5802 19.2728 63.2317C18.8917 62.8723 18.5813 62.4093 18.3417 61.843C18.113 61.2766 17.9987 60.585 17.9987 59.7681C17.9987 58.7769 18.1947 57.9655 18.5868 57.3338C18.9788 56.7021 19.4906 56.1738 20.1222 55.7491C20.7646 55.3134 21.4888 54.943 22.2946 54.6381C23.1114 54.3331 23.9444 54.0119 24.7938 53.6742C25.4254 53.4237 25.8827 53.0533 26.1659 52.5633C26.4599 52.0623 26.607 51.5503 26.607 51.0276C26.607 50.2216 26.3674 49.579 25.8882 49.0997C25.42 48.6096 24.7775 48.3645 23.9608 48.3645ZM49.8182 62.5455C49.8182 62.6871 49.7965 62.8558 49.7529 63.0519C49.7093 63.2479 49.6005 63.4331 49.4262 63.6073C49.2629 63.7817 49.0124 63.9287 48.6748 64.0485C48.3372 64.1792 47.8798 64.2445 47.3028 64.2445C46.7256 64.2445 46.2682 64.1738 45.9306 64.0322C45.6039 63.9014 45.3534 63.7435 45.1792 63.5583C45.0159 63.3733 44.9125 63.1826 44.8689 62.9866C44.8253 62.7905 44.8035 62.6326 44.8035 62.5127V50.9621C44.8035 50.8097 44.7818 50.6572 44.7382 50.5047C44.6946 50.3414 44.6293 50.1943 44.5422 50.0636C44.455 49.933 44.3461 49.8295 44.2156 49.7532C44.0848 49.666 43.9324 49.6226 43.7581 49.6226C43.464 49.6226 43.1756 49.7096 42.8924 49.884C42.6092 50.0473 42.3425 50.2379 42.092 50.4557C41.8524 50.6736 41.6401 50.8914 41.455 51.1092C41.2808 51.3271 41.1555 51.4904 41.0793 51.5993V62.5455C41.0793 62.6871 41.0575 62.8558 41.0139 63.0519C40.9703 63.2479 40.8615 63.4331 40.6873 63.6073C40.5239 63.7817 40.2734 63.9287 39.9359 64.0485C39.6092 64.1792 39.1573 64.2445 38.5801 64.2445C38.003 64.2445 37.5457 64.1738 37.208 64.0322C36.8813 63.9014 36.6308 63.7435 36.4567 63.5583C36.2824 63.3733 36.1735 63.1826 36.1299 62.9866C36.0863 62.7905 36.0646 62.6326 36.0646 62.5127V49.9003C36.0646 49.5844 35.9883 49.3121 35.8359 49.0834C35.6943 48.8438 35.4493 48.724 35.1008 48.724C34.9158 48.724 34.7579 48.7566 34.6272 48.8221C34.4964 48.8874 34.3549 48.98 34.2024 49.0997L33.8595 48.6913C34.11 48.4844 34.3876 48.2829 34.6925 48.0869C35.0084 47.8799 35.3458 47.7002 35.7053 47.5477C36.0646 47.3952 36.4512 47.2699 36.865 47.1719C37.2788 47.0738 37.7144 47.0248 38.1717 47.0248C38.8795 47.0248 39.4294 47.1447 39.8215 47.3844C40.2135 47.613 40.5021 47.8908 40.6873 48.2175C40.8723 48.5443 40.9813 48.8874 41.0139 49.2468C41.0575 49.5953 41.0793 49.8894 41.0793 50.129C41.5911 49.5517 42.141 49.0344 42.7291 48.577C42.9687 48.3809 43.23 48.1903 43.5131 48.0051C43.8071 47.8199 44.1065 47.6566 44.4116 47.515C44.7165 47.3625 45.0322 47.2427 45.359 47.1556C45.6856 47.0684 46.0123 47.0248 46.339 47.0248C46.9706 47.0248 47.5097 47.1393 47.9561 47.3679C48.4026 47.5967 48.7619 47.8744 49.0341 48.2012C49.3064 48.517 49.5025 48.8547 49.6222 49.214C49.7529 49.5626 49.8182 49.8675 49.8182 50.129C50.341 49.5517 50.8909 49.0344 51.468 48.577C51.7076 48.3809 51.9689 48.1903 52.2521 48.0051C52.5352 47.8199 52.8293 47.6566 53.1342 47.515C53.4499 47.3625 53.7657 47.2427 54.0816 47.1556C54.4082 47.0684 54.7349 47.0248 55.0615 47.0248C55.6932 47.0248 56.2322 47.1447 56.6787 47.3844C57.1252 47.613 57.4845 47.9179 57.7568 48.2992C58.029 48.6805 58.225 49.1106 58.3448 49.5899C58.4755 50.0692 58.5408 50.5483 58.5408 51.0276V61.1405C58.5408 61.2385 58.5462 61.3474 58.5572 61.4671C58.5681 61.5762 58.5952 61.6851 58.6388 61.7939C58.6824 61.892 58.7477 61.9737 58.8348 62.039C58.9328 62.1043 59.0581 62.137 59.2106 62.137C59.4175 62.137 59.6026 62.0663 59.7659 61.9247C59.9292 61.7722 60.0817 61.6197 60.2233 61.4671L60.6153 61.8102C60.4629 62.039 60.2614 62.2949 60.011 62.5782C59.7605 62.8504 59.461 63.1118 59.1126 63.3624C58.775 63.6129 58.3775 63.8198 57.9201 63.9832C57.4737 64.1575 56.9673 64.2445 56.401 64.2445C55.9219 64.2445 55.5026 64.1792 55.1432 64.0485C54.7948 63.9287 54.4953 63.7654 54.2449 63.5583C54.0053 63.3405 53.8257 63.09 53.7058 62.8068C53.5861 62.5127 53.5262 62.2023 53.5262 61.8757V50.9621C53.5262 50.8097 53.5043 50.6572 53.4608 50.5047C53.4172 50.3414 53.3519 50.1943 53.2647 50.0636C53.1886 49.933 53.0852 49.8295 52.9544 49.7532C52.8237 49.666 52.6713 49.6226 52.4971 49.6226C52.2031 49.6226 51.909 49.7096 51.615 49.884C51.332 50.0473 51.0651 50.2379 50.8146 50.4557C50.575 50.6736 50.3681 50.8914 50.194 51.1092C50.0197 51.3271 49.8945 51.4904 49.8182 51.5993V62.5455ZM82.7486 52.2038C82.7486 51.485 82.6996 50.8914 82.6016 50.4231C82.5035 49.9547 82.3945 49.568 82.2748 49.2631C82.1659 48.9473 82.0625 48.6913 81.9645 48.4953C81.8665 48.2883 81.8175 48.0977 81.8175 47.9234C81.8175 47.76 81.8828 47.6239 82.0135 47.515C82.1441 47.4061 82.2967 47.3135 82.4708 47.2373C82.656 47.161 82.841 47.1066 83.0262 47.0738C83.2222 47.0413 83.3801 47.0248 83.4999 47.0248C83.8157 47.0248 84.0444 47.0684 84.1859 47.1556C84.3275 47.2427 84.4419 47.4115 84.5289 47.662C84.6269 47.978 84.6924 48.3972 84.7249 48.92C84.7685 49.432 84.7904 49.982 84.7904 50.5702C84.7904 51.4087 84.7414 52.3291 84.6434 53.3311C84.5453 54.3331 84.3875 55.3406 84.1696 56.3536C83.9627 57.3665 83.6905 58.3468 83.3529 59.2943C83.0262 60.2419 82.6287 61.086 82.1605 61.8267C81.6922 62.5563 81.1532 63.1445 80.5433 63.591C79.9335 64.0268 79.242 64.2445 78.4689 64.2445C77.859 64.2445 77.3091 64.1248 76.819 63.8851C76.34 63.6346 75.9098 63.297 75.5287 62.8723C75.1476 62.4474 74.8099 61.9518 74.5159 61.3855C74.2329 60.8082 73.9824 60.1929 73.7645 59.5394C73.5141 60.2038 73.2255 60.8247 72.8989 61.4018C72.5721 61.9683 72.2074 62.4637 71.8045 62.8886C71.4124 63.3134 70.9768 63.6455 70.4977 63.8851C70.0185 64.1248 69.5013 64.2445 68.9458 64.2445C68.2599 64.2445 67.65 64.0975 67.1165 63.8034C66.5937 63.4984 66.1309 63.09 65.728 62.5782C65.3251 62.0553 64.9767 61.4508 64.6826 60.7646C64.3886 60.0786 64.1327 59.3542 63.9148 58.5918C63.708 57.8293 63.5338 57.0452 63.3922 56.2391C63.2506 55.4332 63.1309 54.6545 63.0329 53.903C62.9349 53.1514 62.8531 52.4489 62.7878 51.7954C62.7224 51.1419 62.6571 50.5756 62.5918 50.0963C62.5155 49.6606 62.4012 49.3231 62.2488 49.0834C62.1072 48.8438 61.8622 48.724 61.5137 48.724C61.3285 48.724 61.1707 48.7566 61.0401 48.8221C60.9093 48.8874 60.7678 48.98 60.6153 49.0997L60.2723 48.6913C60.5227 48.4844 60.8005 48.2829 61.1054 48.0869C61.4211 47.8799 61.7587 47.7002 62.1181 47.5477C62.4774 47.3952 62.864 47.2699 63.2778 47.1719C63.6917 47.0738 64.1273 47.0248 64.5846 47.0248C65.238 47.0248 65.766 47.1393 66.1691 47.3679C66.572 47.5858 66.8877 47.8635 67.1165 48.2012C67.3559 48.528 67.5248 48.8819 67.6228 49.2631C67.7208 49.6443 67.7916 49.9874 67.8351 50.2924C68.0312 51.937 68.2218 53.3856 68.4069 54.6381C68.6028 55.8906 68.8098 56.9418 69.0276 57.7913C69.2453 58.6299 69.4795 59.267 69.7299 59.7027C69.9912 60.1276 70.2961 60.3399 70.6446 60.3399C70.8733 60.3399 71.0967 60.2419 71.3144 60.0459C71.5321 59.8498 71.739 59.5776 71.935 59.229C72.1311 58.8805 72.3162 58.4611 72.4905 57.9709C72.6647 57.4699 72.8171 56.9199 72.9479 56.3209C72.839 55.7218 72.7464 55.1282 72.6701 54.5401C72.594 53.952 72.5231 53.391 72.4578 52.8574C72.4034 52.3128 72.3489 51.8062 72.2945 51.338C72.2401 50.8697 72.1801 50.4557 72.1148 50.0963C71.9515 49.0726 72.0441 48.3046 72.3925 47.7928C72.7519 47.2809 73.4651 47.0248 74.5323 47.0248C75.0005 47.0248 75.3926 47.0684 75.7083 47.1556C76.0351 47.2319 76.3018 47.3844 76.5087 47.613C76.7266 47.8309 76.9008 48.1359 77.0315 48.528C77.1621 48.9091 77.2655 49.3992 77.3418 49.9983C77.5487 51.6321 77.7501 53.0915 77.9462 54.3767C78.1422 55.662 78.3491 56.7457 78.5669 57.6278C78.7847 58.5101 79.0189 59.1854 79.2693 59.6537C79.5306 60.1112 79.8355 60.3399 80.184 60.3399C80.5543 60.3399 80.8972 60.1112 81.2131 59.6537C81.5289 59.1963 81.8012 58.5918 82.0298 57.8403C82.2585 57.0888 82.4327 56.2228 82.5525 55.2426C82.6831 54.2624 82.7486 53.2494 82.7486 52.2038ZM95.1627 55.5204C95.1627 55.2481 95.0756 55.0411 94.9014 54.8996C94.7271 54.758 94.5039 54.6871 94.2316 54.6871C93.8506 54.6871 93.4857 54.7743 93.1372 54.9486C92.7997 55.1228 92.5003 55.3787 92.2388 55.7164C91.9775 56.0541 91.7706 56.4734 91.6182 56.9744C91.4657 57.4645 91.3894 58.0364 91.3894 58.6899C91.3894 59.3215 91.433 59.8444 91.5202 60.2582C91.6182 60.6722 91.7433 61.0043 91.8958 61.2548C92.0592 61.4944 92.2442 61.6632 92.4513 61.7612C92.6581 61.8592 92.8759 61.9083 93.1046 61.9083C93.3877 61.9083 93.6545 61.8375 93.905 61.6959C94.1555 61.5434 94.3732 61.3528 94.5584 61.1242C94.7435 60.8954 94.8905 60.6395 94.9994 60.3562C95.1083 60.073 95.1627 59.7899 95.1627 59.5067V55.5204ZM92.5656 48.3645C92.1952 48.3645 91.8522 48.4081 91.5364 48.4953C91.2207 48.5824 90.9484 48.6913 90.7198 48.8221C90.491 48.9527 90.3114 49.0997 90.1807 49.2631C90.05 49.4155 89.9847 49.5626 89.9847 49.7042C89.9847 49.8675 90.0664 49.9874 90.2297 50.0636C90.4039 50.129 90.5945 50.2106 90.8014 50.3087C91.0084 50.3958 91.1934 50.5266 91.3569 50.7008C91.531 50.8643 91.6182 51.1202 91.6182 51.4687C91.6182 51.6974 91.5692 51.9099 91.4712 52.1058C91.384 52.291 91.2588 52.4599 91.0954 52.6123C90.9429 52.7538 90.7578 52.8683 90.54 52.9555C90.3332 53.0316 90.1154 53.0698 89.8867 53.0698C89.2769 53.0698 88.7814 52.8629 88.4002 52.4489C88.03 52.035 87.8449 51.485 87.8449 50.7988C87.8449 50.1345 88.019 49.568 88.3675 49.0997C88.716 48.6204 89.168 48.2285 89.7234 47.9234C90.2896 47.6184 90.9267 47.3952 91.6345 47.2536C92.3422 47.1011 93.0502 47.0248 93.758 47.0248C94.6074 47.0248 95.4186 47.1174 96.1918 47.3026C96.9649 47.4878 97.6456 47.7819 98.2336 48.1849C98.8326 48.5879 99.3062 49.0997 99.6547 49.7206C100.014 50.3414 100.194 51.0929 100.194 51.9752V61.2058C100.194 61.3038 100.199 61.4127 100.21 61.5326C100.221 61.6523 100.248 61.7612 100.292 61.8592C100.335 61.9573 100.401 62.039 100.488 62.1043C100.575 62.1698 100.7 62.2023 100.864 62.2023C101.059 62.2023 101.239 62.1316 101.402 61.99C101.577 61.8375 101.729 61.6851 101.86 61.5326L102.268 61.8757C102.105 62.1043 101.909 62.3548 101.68 62.6272C101.451 62.8994 101.174 63.1553 100.847 63.395C100.52 63.6346 100.139 63.8361 99.7037 63.9995C99.268 64.1629 98.7727 64.2445 98.2172 64.2445C97.5313 64.2445 96.9213 64.043 96.3879 63.6401C95.8542 63.2262 95.5058 62.5945 95.3425 61.7449C94.994 62.2132 94.6291 62.6053 94.248 62.9213C93.8777 63.2371 93.4967 63.493 93.1046 63.6891C92.7126 63.8851 92.3151 64.0267 91.9122 64.1139C91.5202 64.2009 91.1227 64.2445 90.7198 64.2445C90.197 64.2445 89.6907 64.1629 89.2006 63.9995C88.7105 63.8361 88.2696 63.5802 87.8776 63.2317C87.4964 62.8723 87.1861 62.4093 86.9465 61.843C86.7177 61.2766 86.6034 60.585 86.6034 59.7681C86.6034 58.7769 86.7995 57.9655 87.1915 57.3338C87.5836 56.7021 88.0953 56.1738 88.727 55.7491C89.3695 55.3134 90.0936 54.943 90.8994 54.6381C91.7162 54.3331 92.5491 54.0119 93.3987 53.6742C94.0302 53.4237 94.4875 53.0533 94.7707 52.5633C95.0647 52.0623 95.2117 51.5503 95.2117 51.0276C95.2117 50.2216 94.9721 49.579 94.4931 49.0997C94.0247 48.6096 93.3822 48.3645 92.5656 48.3645Z" fill="#23233E"/>
</g>
<defs>
<clipPath id="clip0_294_608">
<rect width="103" height="70" fill="white"/>
</clipPath>
</defs>
</svg>
