<svg width="53" height="45" viewBox="0 0 53 45" fill="none" xmlns="http://www.w3.org/2000/svg">
<g clip-path="url(#clip0_1638_322)">
<path d="M0 26.5445C0.334682 26.0334 0.800746 25.8691 1.40096 25.8902C2.51703 25.9281 3.63586 25.8958 4.75469 25.9028C5.48905 25.907 5.96065 26.3058 5.95927 26.904C5.95927 27.5063 5.48629 27.9065 4.76022 27.9093C3.62479 27.9135 2.48937 27.884 1.35532 27.9219C0.768938 27.9416 0.323618 27.7745 0.00138298 27.2803V26.5445H0Z" fill="#CF6C0D"/>
<path d="M29.5843 23.0413C29.8416 23.0413 30.0435 23.0413 30.2454 23.0413C32.6255 23.0413 35.007 23.023 37.3871 23.0483C39.2915 23.0679 40.6551 24.6068 40.3508 26.456C40.2444 27.1005 39.853 27.6973 39.5736 28.3558C40.8404 28.7489 41.6799 29.6433 41.7214 31.1457C41.7615 32.6186 40.9414 33.5482 39.6497 34.2235C40.5376 35.2541 41.0548 36.3704 40.5569 37.7029C40.0756 38.9918 39.0882 39.6377 37.6858 39.7641C37.8449 40.014 37.9583 40.1825 38.062 40.358C39.2458 42.3617 37.9514 44.9129 35.6542 44.948C31.8082 45.007 27.958 45.0421 24.116 44.9101C23.0345 44.8722 21.9517 44.2685 20.9103 43.8276C20.0072 43.4457 19.1456 42.9528 18.2937 42.46C17.6879 42.1104 17.0684 41.9433 16.3741 41.9531C15.063 41.9728 13.752 41.9348 12.4409 41.9713C11.9098 41.9868 11.6153 41.7818 11.3968 41.3156C10.7744 39.9944 10.5517 38.5833 10.4577 37.1469C10.224 33.5594 10.6126 30.0154 11.1893 26.4841C11.2668 26.0109 11.4866 25.8059 11.9818 25.7919C13.7229 25.7456 15.4641 25.6669 17.2025 25.5701C17.4183 25.5574 17.6879 25.4072 17.8248 25.2331C20.1082 22.3069 22.4924 19.472 25.1643 16.8983C26.1352 15.9632 26.7852 14.8203 27.1295 13.5018C27.4297 12.3533 27.7422 11.2075 28.0506 10.0604C28.2415 9.34849 28.4987 9.23335 29.1197 9.62931C30.7599 10.674 31.8967 12.0781 32.1318 14.0986C32.2355 14.9874 32.0723 15.8467 31.7197 16.6582C30.8982 18.5467 30.0767 20.4339 29.6604 22.4698C29.6258 22.6369 29.6134 22.8068 29.5816 23.0427L29.5843 23.0413Z" fill="#CF6C0D"/>
<path d="M25.5005 2.96126C25.5005 2.34908 25.4894 1.73689 25.5032 1.1247C25.5198 0.422651 25.8849 0.01125 26.4699 1.72495e-05C27.0618 -0.0126196 27.4864 0.433884 27.4947 1.13453C27.5099 2.37575 27.5113 3.61698 27.4933 4.8582C27.4837 5.53077 27.066 5.95761 26.4893 5.952C25.9001 5.94638 25.5129 5.52515 25.5018 4.84837C25.4908 4.21934 25.4991 3.5889 25.4991 2.95986L25.5005 2.96126Z" fill="#CF6C0D"/>
<path d="M50.0547 25.9028C50.6923 25.9028 51.3312 25.893 51.9688 25.9056C52.6036 25.9183 53.006 26.317 53.0005 26.9011C52.9949 27.4698 52.5704 27.9008 51.9563 27.9079C50.6632 27.9219 49.3688 27.9205 48.0757 27.9079C47.445 27.9022 47.0398 27.4894 47.044 26.9067C47.0481 26.3423 47.4755 25.9197 48.0881 25.907C48.7437 25.893 49.3992 25.9042 50.0547 25.9042V25.9028Z" fill="#CF6C0D"/>
<path d="M37.5572 8.89776C36.5615 8.88512 36.0968 8.0904 36.5034 7.38133C37.152 6.24682 37.8172 5.12213 38.4852 3.99885C38.8213 3.4344 39.2818 3.30101 39.7907 3.59588C40.2582 3.86827 40.4324 4.43834 40.1476 4.96487C39.6939 5.80874 39.1988 6.63014 38.7217 7.46136C38.5391 7.77869 38.3912 8.1255 38.163 8.40351C37.9707 8.6394 37.6845 8.79666 37.5572 8.89776Z" fill="#CF6C0D"/>
<path d="M4.44763 12.95C4.57763 13.0048 4.80859 13.075 5.01189 13.1943C6.06987 13.8121 7.12508 14.437 8.17477 15.0688C8.80402 15.4479 8.93817 15.8902 8.62009 16.4546C8.30753 17.0093 7.83317 17.123 7.21083 16.7607C6.12242 16.1275 5.03955 15.4816 3.96082 14.8287C3.53072 14.5675 3.35646 14.173 3.49061 13.6661C3.60678 13.2266 3.88891 12.9879 4.44625 12.9486L4.44763 12.95Z" fill="#CF6C0D"/>
<path d="M16.6773 7.79697C16.6967 8.4246 16.4173 8.68436 16.0177 8.836C15.618 8.98764 15.228 8.9034 15.0109 8.53973C14.2779 7.31817 13.556 6.08818 12.8824 4.83291C12.6072 4.31901 12.8465 3.80792 13.3457 3.56501C13.8409 3.3235 14.2765 3.44847 14.5766 3.95816C15.228 5.0674 15.8697 6.18225 16.5017 7.30272C16.6096 7.49228 16.6511 7.72114 16.6773 7.79697Z" fill="#CF6C0D"/>
<path d="M44.1846 37.9303C44.2731 37.0738 44.9494 36.5894 45.6146 36.9573C46.7901 37.6088 47.9435 38.3038 49.09 39.0087C49.5934 39.319 49.6985 39.9438 49.3929 40.4311C49.1204 40.8649 48.6364 40.9829 48.1247 40.6866C47.0045 40.0407 45.8856 39.3906 44.7931 38.6956C44.5345 38.5313 44.3851 38.1901 44.186 37.9303H44.1846Z" fill="#CF6C0D"/>
<path d="M45.0905 16.9994C44.8318 16.7579 44.4875 16.5628 44.3381 16.2651C44.15 15.893 44.2302 15.4507 44.6272 15.1994C45.8124 14.4524 47.0017 13.7096 48.2077 12.9963C48.6765 12.7183 49.1592 12.884 49.4136 13.3263C49.6902 13.8051 49.6322 14.3738 49.2048 14.6377C48.0113 15.3721 46.7984 16.0713 45.5883 16.779C45.4735 16.8464 45.3311 16.866 45.2025 16.9082C45.1651 16.9391 45.1278 16.9685 45.0905 16.9994Z" fill="#CF6C0D"/>
</g>
<defs>
<clipPath id="clip0_1638_322">
<rect width="53" height="45" fill="white"/>
</clipPath>
</defs>
</svg>
