<svg width="45" height="45" viewBox="0 0 45 45" fill="none" xmlns="http://www.w3.org/2000/svg">
<g clip-path="url(#clip0_1638_311)">
<path d="M30.8728 18.002C38.6664 18.0058 45.0115 24.0764 44.9997 31.5179C44.9879 38.9606 38.6245 45.015 30.8334 44.9963C23.0594 44.9788 16.7341 38.9256 16.7314 31.5029C16.7288 24.0614 23.0817 17.997 30.8728 18.002ZM29.4845 36.2727C30.5975 36.2452 31.5151 35.8666 32.2794 35.1368C34.2655 33.2374 36.2569 31.3417 38.2443 29.4423C38.3597 29.3323 38.4724 29.2161 38.5655 29.0899C39.2013 28.2226 38.7398 27.0418 37.6649 26.7818C37.029 26.6281 36.5191 26.8418 36.0707 27.2704C34.0859 29.1711 32.0959 31.068 30.1059 32.9637C29.6116 33.4336 29.4176 33.4323 28.9273 32.9674C28.3806 32.4514 27.8497 31.9215 27.2938 31.4154C26.6449 30.8243 25.705 30.8281 25.0888 31.4054C24.4727 31.9827 24.4478 32.8925 25.0639 33.5085C25.6853 34.1283 26.3224 34.7357 26.9753 35.3242C27.6832 35.9628 28.5537 36.2414 29.4858 36.2714L29.4845 36.2727Z" fill="#CF6C0D"/>
<path d="M26.2049 10.538C27.5605 10.728 28.7495 11.2466 29.6698 12.225C30.0369 12.6161 30.3594 13.0598 30.6216 13.5221C31.007 14.2044 30.7081 15.0267 29.9989 15.4215C29.2752 15.8239 28.3221 15.6715 27.9223 14.9892C27.2563 13.8533 26.2613 13.4859 24.949 13.4921C19.3722 13.5221 13.7941 13.5046 8.21727 13.5046C6.48549 13.5046 5.49047 14.4168 5.33578 16.0501C5.00935 19.5015 4.64752 22.9492 4.30405 26.3994C3.99336 29.5072 3.6879 32.6163 3.37983 35.7241C3.30248 36.5013 3.22382 37.2786 3.15434 38.0559C2.96032 40.194 4.64883 41.9834 6.89713 41.9922C10.3476 42.0059 13.7993 41.9922 17.2498 41.9984C18.2631 41.9997 18.9711 42.672 18.9304 43.5642C18.8924 44.3839 18.2199 44.99 17.3075 44.9938C15.2466 45.0013 13.1858 44.9963 11.125 44.9963C9.71832 44.9963 8.31166 45.0037 6.905 44.995C2.81218 44.9675 -0.3315 41.706 0.0303244 37.8109C0.457697 33.2236 0.937508 28.6412 1.39241 24.0576C1.66902 21.276 1.95481 18.4943 2.20914 15.7114C2.45167 13.0598 4.26079 11.0904 6.98103 10.6018C7.31008 10.543 7.31401 10.3856 7.31008 10.1519C7.2878 8.91727 7.3127 7.6914 7.68239 6.48676C8.9147 2.45425 12.9446 -0.252427 17.3455 0.0187397C21.7057 0.287408 25.3738 3.46269 26.0253 7.59143C26.1748 8.54239 26.1486 9.51959 26.2063 10.5393L26.2049 10.538ZM22.9695 10.4855C23.2592 7.64641 22.5002 5.26339 19.814 3.80133C17.5723 2.58046 15.2833 2.69417 13.1517 4.09374C10.8025 5.63577 10.2152 7.89883 10.4905 10.4868H22.9695V10.4855Z" fill="#CF6C0D"/>
<path d="M21.4417 16.5087C21.4378 15.6865 22.1274 15.0129 22.9847 15.0029C23.8578 14.9917 24.5867 15.6827 24.5776 16.515C24.5684 17.3297 23.8578 18.0008 23.0044 17.9995C22.1523 17.9995 21.4457 17.3247 21.4404 16.5087H21.4417Z" fill="#CF6C0D"/>
<path d="M12.7095 16.49C12.7134 17.311 12.0225 17.987 11.1678 17.9995C10.2999 18.0108 9.56446 17.3135 9.57233 16.4862C9.58019 15.669 10.2881 15.0029 11.1455 15.0029C12.0028 15.0029 12.7042 15.6715 12.7081 16.49H12.7095Z" fill="#CF6C0D"/>
</g>
<defs>
<clipPath id="clip0_1638_311">
<rect width="45" height="45" fill="white"/>
</clipPath>
</defs>
</svg>
