<svg width="40" height="40" viewBox="0 0 40 40" fill="none" xmlns="http://www.w3.org/2000/svg">
<g clip-path="url(#clip0_297_418)">
<path d="M26.2864 13.711L26.2409 13.6655C24.7547 12.1802 22.7873 11.2738 20.6926 11.1092C18.5978 10.9446 16.513 11.5326 14.813 12.7675C13.113 14.0025 11.9093 15.8034 11.4182 17.8464C10.9272 19.8894 11.181 22.0406 12.1341 23.9132L12.5227 24.6769L11.7977 28.1996V28.2428L15.2886 27.4178L16.0818 27.811C17.7376 28.6326 19.6095 28.914 21.4337 28.6156C23.2578 28.3171 24.9424 27.4538 26.25 26.1473C27.8965 24.4996 28.8252 22.2679 28.8337 19.9385C28.8422 17.6091 27.9299 15.3707 26.2955 13.711H26.2864ZM25.9318 23.5723C25.5046 24.2541 24.8273 25.0678 23.9796 25.2723C22.4909 25.6337 20.2091 25.286 17.3591 22.6382L17.325 22.6064C14.8432 20.2905 14.1864 18.3632 14.3432 16.8337C14.4296 15.9655 15.1523 15.1814 15.7614 14.6678C15.8577 14.5854 15.9719 14.5268 16.0949 14.4965C16.2179 14.4663 16.3463 14.4652 16.4698 14.4935C16.5933 14.5218 16.7085 14.5786 16.8061 14.6594C16.9036 14.7401 16.981 14.8427 17.0318 14.9587L17.9546 17.0451C18.0136 17.1789 18.0354 17.3261 18.0178 17.4713C18.0002 17.6165 17.9438 17.7542 17.8546 17.87L17.4 18.4746C17.3034 18.5988 17.2457 18.7489 17.2344 18.9058C17.2231 19.0628 17.2586 19.2196 17.3364 19.3564C17.7805 20.0085 18.3111 20.5972 18.9136 21.1064C19.6886 21.8087 20.5523 22.4519 21.0955 22.6723C21.2417 22.7312 21.4023 22.7451 21.5565 22.7123C21.7107 22.6795 21.8517 22.6015 21.9614 22.4882L22.4955 21.945C22.5982 21.8407 22.727 21.7658 22.8685 21.7283C23.0101 21.6907 23.1591 21.6918 23.3 21.7314L25.4841 22.3587C25.6032 22.3963 25.7121 22.4606 25.8024 22.5468C25.8928 22.6329 25.9623 22.7386 26.0055 22.8558C26.0487 22.9729 26.0645 23.0984 26.0518 23.2226C26.039 23.3468 25.998 23.4664 25.9318 23.5723Z" fill="#CC6D00"/>
<path d="M32.8318 0H0V32.8295C-9.55055e-08 34.7309 0.755144 36.5544 2.09937 37.899C3.4436 39.2437 5.26685 39.9994 7.16818 40H40V7.16818C40 5.26706 39.2448 3.44381 37.9005 2.09951C36.5562 0.755217 34.7329 0 32.8318 0ZM31.2659 20.2682C31.2041 22.1555 30.6694 23.9972 29.7108 25.6241C28.7521 27.2511 27.4003 28.6113 25.7793 29.5799C24.1583 30.5485 22.32 31.0946 20.433 31.168C18.5461 31.2414 16.6709 30.8398 14.9795 30L9.29773 31.3477C9.2127 31.3666 9.12397 31.3596 9.04296 31.3276C8.96195 31.2956 8.89238 31.2401 8.84318 31.1682C8.8088 31.1201 8.78496 31.0652 8.77321 31.0073C8.76146 30.9493 8.76207 30.8895 8.775 30.8318L9.97045 25.025C9.18999 23.4931 8.77028 21.8029 8.74343 20.0839C8.71658 18.3648 9.08329 16.6624 9.81552 15.1068C10.5478 13.5512 11.6261 12.1838 12.968 11.109C14.31 10.0343 15.88 9.28075 17.558 8.90604C19.2359 8.53133 20.9773 8.5454 22.649 8.94716C24.3207 9.34893 25.8783 10.1277 27.2027 11.224C28.5271 12.3203 29.5833 13.705 30.2903 15.2722C30.9973 16.8394 31.3364 18.5475 31.2818 20.2659L31.2659 20.2682Z" fill="#CC6D00"/>
</g>
<defs>
<clipPath id="clip0_297_418">
<rect width="40" height="40" fill="white"/>
</clipPath>
</defs>
</svg>
